<svg width="60" height="96" viewBox="0 0 60 96" fill="none" xmlns="http://www.w3.org/2000/svg">
<path d="M45.3595 71.4626C47.9158 71.4626 51.1692 70.9838 53.9579 68.949C58.9542 65.2385 60 57.9371 60 57.578C60 57.2189 59.7676 56.8598 59.419 56.7401C59.0704 56.7401 52.0988 55.1841 46.9862 58.8946C45.8242 59.7325 44.8947 60.6901 44.1975 61.887C44.4299 60.0916 44.6623 58.2962 44.6623 56.5007C44.6623 55.7826 44.6623 54.9447 44.6623 54.2266C46.0566 53.9872 52.0988 52.4311 55.1198 47.5236C58.4895 42.1374 56.6304 34.9557 56.6304 34.7163C56.5142 34.3572 56.1656 34.1178 55.817 34.1178C55.5846 34.2375 48.4967 35.5542 45.1271 40.8207C44.4299 42.0177 43.8489 43.3343 43.6166 44.5313C43.0356 42.0177 42.2222 39.6238 41.2927 37.3496C42.4546 36.5117 47.451 32.8012 48.4967 27.0559C49.6587 20.8317 45.3595 14.847 45.2433 14.6076C45.0109 14.2485 44.5461 14.1288 44.1975 14.3682C43.9651 14.4879 37.923 18.4378 36.7611 24.7817C36.5287 26.218 36.5287 27.5346 36.6449 28.8513C35.1343 26.5771 33.3914 24.5423 31.4161 22.5075C32.2295 21.1908 35.2505 15.8046 34.0886 10.2986C32.8104 4.07447 26.5359 0.363934 26.3035 0.124545C25.955 -0.114845 25.4902 0.00484964 25.2578 0.363934C25.1416 0.603323 20.9586 6.70775 22.3529 12.9319C23.1663 16.5227 25.4902 19.2757 27.4655 21.0711C27.6979 21.3105 27.9303 21.5499 28.1627 21.6696H28.2789C38.2716 30.527 43.7327 43.0949 43.3842 56.2614C42.687 72.3005 33.74 86.7835 19.5643 94.444C19.2157 94.6834 19.0995 95.1621 19.2157 95.5212C19.3319 95.7606 19.5643 96 19.9128 96C20.029 96 20.1452 96 20.2614 95.8803C24.9092 93.3667 29.0922 90.135 32.5781 86.3047C33.6238 87.0229 37.5744 89.4168 41.9898 89.4168C42.8032 89.4168 43.6166 89.2971 44.5461 89.1774C50.5882 87.8608 54.1903 81.3972 54.4227 81.1578C54.655 80.7988 54.5389 80.32 54.1903 80.0806C53.9579 79.8412 48.0319 75.6519 41.9898 77.0882C40.5955 77.4473 39.3173 77.9261 38.1554 78.764C39.5497 76.3701 40.8279 73.8565 41.7574 71.2232C42.3384 71.2232 43.6166 71.4626 45.3595 71.4626Z" fill="#737373"/>
<path d="M28.2789 79.4814C28.5113 79.1223 28.3951 78.6435 28.0465 78.4042C27.8141 78.2845 23.1663 74.933 18.2861 76.0103C17.3566 76.2497 16.5432 76.489 15.846 76.9678C16.7756 75.2921 17.589 73.4967 18.2861 71.7013C18.7509 71.821 19.7967 71.9406 20.9586 71.9406C22.9339 71.9406 25.6064 71.5816 27.8141 69.9058C31.8809 66.9135 32.6943 61.0484 32.6943 60.809C32.6943 60.45 32.4619 59.9712 32.1133 59.9712C31.8809 59.9712 26.3036 58.7742 22.2368 61.6469C21.5396 62.1257 20.8424 62.8438 20.3776 63.4423C20.4938 62.2454 20.61 61.0484 20.61 59.7318C20.61 59.1333 20.61 58.6545 20.61 58.0561C21.8882 57.8167 26.536 56.5 28.8598 52.6698C31.5323 48.3608 30.138 42.6154 30.0218 42.3761C29.9056 42.017 29.557 41.7776 29.2084 41.7776C28.976 41.7776 23.2825 42.8548 20.61 47.1638C20.1452 48.0017 19.7967 48.8396 19.5643 49.6774C19.0995 48.0017 18.5185 46.2063 17.8214 44.6503C18.8671 43.9321 22.7015 40.9397 23.5149 36.511C24.4445 31.4838 20.9586 26.696 20.8424 26.5764C20.61 26.2173 20.1452 26.2173 19.7967 26.337C19.5643 26.4567 14.6841 29.6884 13.8707 34.7156C13.7545 35.6732 13.6383 36.511 13.7545 37.4686C12.5926 35.9125 11.4306 34.3565 10.0363 33.0399C10.7335 31.8429 13.0574 27.6536 12.1278 23.3446C11.0821 18.3174 6.08569 15.3251 5.8533 15.2054C5.50472 14.966 5.03994 15.0857 4.80755 15.4447C4.69136 15.6841 1.4379 20.4719 2.48365 25.4991C3.18082 28.6112 5.38852 31.0051 6.89905 32.3217C6.89905 32.3217 7.01525 32.3217 7.01525 32.4414C14.9165 39.3837 19.3319 49.438 18.9833 59.8515C18.6347 72.4194 11.5468 83.9101 0.392155 89.7752C0.0435677 90.0145 -0.0726242 90.4933 0.0435715 90.8524C0.159763 91.0918 0.392151 91.3312 0.740734 91.3312C0.85693 91.3312 0.973125 91.3312 1.08932 91.2115C4.80755 89.1767 8.061 86.6631 10.8497 83.6707C11.7792 84.2692 14.8003 86.0646 18.2861 86.0646C18.9833 86.0646 19.5643 85.9449 20.2614 85.8252C25.1416 84.748 28.1627 79.7208 28.2789 79.4814Z" fill="#737373"/>
</svg>
