<svg width="60" height="96" viewBox="0 0 60 96" fill="none" xmlns="http://www.w3.org/2000/svg">
<path d="M14.6405 71.4626C12.0842 71.4626 8.8308 70.9838 6.04213 68.949C1.04575 65.2385 0 57.9371 0 57.578C0 57.2189 0.232389 56.8598 0.580973 56.7401C0.929557 56.7401 7.90124 55.1841 13.0138 58.8946C14.1758 59.7325 15.1053 60.6901 15.8025 61.887C15.5701 60.0916 15.3377 58.2962 15.3377 56.5007C15.3377 55.7826 15.3377 54.9447 15.3377 54.2266C13.9434 53.9872 7.90124 52.4311 4.88018 47.5236C1.51053 42.1374 3.36965 34.9557 3.36965 34.7163C3.48584 34.3572 3.83443 34.1178 4.18301 34.1178C4.4154 34.2375 11.5033 35.5542 14.8729 40.8207C15.5701 42.0177 16.1511 43.3343 16.3834 44.5313C16.9644 42.0177 17.7778 39.6238 18.7073 37.3496C17.5454 36.5117 12.549 32.8012 11.5033 27.0559C10.3413 20.8317 14.6405 14.847 14.7567 14.6076C14.9891 14.2485 15.4539 14.1288 15.8025 14.3682C16.0349 14.4879 22.077 18.4378 23.2389 24.7817C23.4713 26.218 23.4713 27.5346 23.3551 28.8513C24.8657 26.5771 26.6086 24.5423 28.5839 22.5075C27.7705 21.1908 24.7495 15.8046 25.9114 10.2986C27.1896 4.07447 33.4641 0.363934 33.6965 0.124545C34.045 -0.114845 34.5098 0.00484964 34.7422 0.363934C34.8584 0.603323 39.0414 6.70775 37.6471 12.9319C36.8337 16.5227 34.5098 19.2757 32.5345 21.0711C32.3021 21.3105 32.0697 21.5499 31.8373 21.6696H31.7211C21.7284 30.527 16.2673 43.0949 16.6158 56.2614C17.313 72.3005 26.26 86.7835 40.4357 94.444C40.7843 94.6834 40.9005 95.1621 40.7843 95.5212C40.6681 95.7606 40.4357 96 40.0872 96C39.971 96 39.8548 96 39.7386 95.8803C35.0908 93.3667 30.9078 90.135 27.4219 86.3047C26.3762 87.0229 22.4256 89.4168 18.0102 89.4168C17.1968 89.4168 16.3834 89.2971 15.4539 89.1774C9.41177 87.8608 5.80973 81.3972 5.57735 81.1578C5.34496 80.7988 5.46115 80.32 5.80973 80.0806C6.04212 79.8412 11.9681 75.6519 18.0102 77.0882C19.4045 77.4473 20.6827 77.9261 21.8446 78.764C20.4503 76.3701 19.1721 73.8565 18.2426 71.2232C17.6616 71.2232 16.3834 71.4626 14.6405 71.4626Z" fill="#737373"/>
<path d="M31.7211 79.4814C31.4887 79.1223 31.6049 78.6435 31.9535 78.4042C32.1859 78.2845 36.8337 74.933 41.7139 76.0103C42.6434 76.2497 43.4568 76.489 44.154 76.9678C43.2244 75.2921 42.411 73.4967 41.7139 71.7013C41.2491 71.821 40.2033 71.9406 39.0414 71.9406C37.0661 71.9406 34.3936 71.5816 32.1859 69.9058C28.1191 66.9135 27.3057 61.0484 27.3057 60.809C27.3057 60.45 27.5381 59.9712 27.8867 59.9712C28.1191 59.9712 33.6964 58.7742 37.7632 61.6469C38.4604 62.1257 39.1576 62.8438 39.6224 63.4423C39.5062 62.2454 39.39 61.0484 39.39 59.7318C39.39 59.1333 39.39 58.6545 39.39 58.0561C38.1118 57.8167 33.464 56.5 31.1402 52.6698C28.4677 48.3608 29.862 42.6154 29.9782 42.3761C30.0944 42.017 30.443 41.7776 30.7916 41.7776C31.024 41.7776 36.7175 42.8548 39.39 47.1638C39.8548 48.0017 40.2033 48.8396 40.4357 49.6774C40.9005 48.0017 41.4815 46.2063 42.1786 44.6503C41.1329 43.9321 37.2985 40.9397 36.4851 36.511C35.5555 31.4838 39.0414 26.696 39.1576 26.5764C39.39 26.2173 39.8548 26.2173 40.2033 26.337C40.4357 26.4567 45.3159 29.6884 46.1293 34.7156C46.2455 35.6732 46.3617 36.511 46.2455 37.4686C47.4074 35.9125 48.5694 34.3565 49.9637 33.0399C49.2665 31.8429 46.9426 27.6536 47.8722 23.3446C48.9179 18.3174 53.9143 15.3251 54.1467 15.2054C54.4953 14.966 54.9601 15.0857 55.1924 15.4447C55.3086 15.6841 58.5621 20.4719 57.5163 25.4991C56.8192 28.6112 54.6115 31.0051 53.1009 32.3217C53.1009 32.3217 52.9847 32.3217 52.9847 32.4414C45.0835 39.3837 40.6681 49.438 41.0167 59.8515C41.3653 72.4194 48.4532 83.9101 59.6078 89.7752C59.9564 90.0145 60.0726 90.4933 59.9564 90.8524C59.8402 91.0918 59.6078 91.3312 59.2593 91.3312C59.1431 91.3312 59.0269 91.3312 58.9107 91.2115C55.1924 89.1767 51.939 86.6631 49.1503 83.6707C48.2208 84.2692 45.1997 86.0646 41.7139 86.0646C41.0167 86.0646 40.4357 85.9449 39.7386 85.8252C34.8584 84.748 31.8373 79.7208 31.7211 79.4814Z" fill="#737373"/>
</svg>
