<svg width="48" height="32" viewBox="0 0 48 32" fill="none" xmlns="http://www.w3.org/2000/svg">
<rect x="0.3" y="0.3" width="47.4" height="31.4" rx="3.7" fill="white" stroke="#D4D4D4" stroke-width="0.6"/>
<path fill-rule="evenodd" clip-rule="evenodd" d="M12.3022 11.5212C12.9066 11.573 13.5109 11.2109 13.8886 10.7519C14.26 10.28 14.5056 9.64647 14.4426 9C13.9075 9.02586 13.2465 9.36203 12.8688 9.83395C12.5226 10.2412 12.2267 10.9006 12.3022 11.5212ZM19.4914 19.8478V9.7693H23.1741C25.0752 9.7693 26.4035 11.114 26.4035 13.0792C26.4035 15.0445 25.05 16.4021 23.1237 16.4021H21.0148V19.8478H19.4914ZM14.4363 11.6441C13.9039 11.6126 13.4181 11.8085 13.0257 11.9668C12.7732 12.0686 12.5593 12.1548 12.3966 12.1548C12.2141 12.1548 11.9914 12.064 11.7414 11.962C11.4138 11.8283 11.0393 11.6756 10.6466 11.6829C9.74637 11.6958 8.90911 12.2195 8.44956 13.0534C7.50528 14.7213 8.20405 17.1908 9.11685 18.5484C9.56381 19.2208 10.0989 19.9578 10.804 19.9319C11.1141 19.9199 11.3373 19.8226 11.5682 19.722C11.834 19.6062 12.1102 19.4858 12.5414 19.4858C12.9577 19.4858 13.2218 19.603 13.4753 19.7156C13.7164 19.8225 13.9479 19.9253 14.2915 19.919C15.0217 19.906 15.4813 19.2466 15.9282 18.5743C16.4106 17.8527 16.6226 17.1485 16.6547 17.0416L16.6585 17.0292C16.6577 17.0284 16.6518 17.0256 16.6412 17.0207C16.48 16.9449 15.2476 16.3655 15.2358 14.8118C15.2239 13.5077 16.2133 12.847 16.369 12.743C16.3785 12.7367 16.3849 12.7324 16.3878 12.7302C15.7583 11.7734 14.7762 11.67 14.4363 11.6441ZM29.186 19.9256C30.1429 19.9256 31.0305 19.4278 31.4334 18.6391H31.4649V19.848H32.875V14.8314C32.875 13.3768 31.7419 12.4395 29.9981 12.4395C28.3803 12.4395 27.1842 13.3898 27.1401 14.6956H28.5125C28.6258 14.075 29.186 13.6678 29.9541 13.6678C30.8857 13.6678 31.4082 14.1138 31.4082 14.9348V15.4908L29.5071 15.6072C27.7381 15.7171 26.7813 16.4605 26.7813 17.7535C26.7813 19.0593 27.7696 19.9256 29.186 19.9256ZM29.5951 18.73C28.7831 18.73 28.2668 18.3292 28.2668 17.715C28.2668 17.0815 28.7642 16.713 29.7147 16.6548L31.4081 16.5449V17.1138C31.4081 18.0577 30.6275 18.73 29.5951 18.73ZM37.5523 20.2431C36.9417 22.0079 36.2429 22.5898 34.7572 22.5898C34.6439 22.5898 34.2662 22.5768 34.1781 22.551V21.3421C34.2725 21.355 34.5054 21.3679 34.6251 21.3679C35.2986 21.3679 35.6763 21.077 35.9093 20.3207L36.0478 19.8746L33.4667 12.5371H35.0594L36.8535 18.4911H36.885L38.6792 12.5371H40.2278L37.5523 20.2431ZM21.0147 11.0881H22.771C24.093 11.0881 24.8484 11.8122 24.8484 13.0857C24.8484 14.3593 24.093 15.0898 22.7647 15.0898H21.0147V11.0881Z" fill="#101828"/>
</svg>
