<svg width="48" height="32" viewBox="0 0 48 32" fill="none" xmlns="http://www.w3.org/2000/svg">
<rect x="0.3" y="0.3" width="47.4" height="31.4" rx="3.7" fill="white" stroke="#D4D4D4" stroke-width="0.6"/>
<path d="M36.9246 17.6261H36.947L38.824 12.8477H40.1433L36.0886 22.4268H34.8376L36.3445 19.0763L33.6843 12.8477H35.0027L36.9246 17.6261ZM30.5789 12.6309C31.4757 12.6309 32.1848 12.8786 32.7048 13.3673C33.2248 13.8559 33.4811 14.5387 33.4812 15.3995V19.503H32.3201V18.5802H32.2673C31.7624 19.3402 31.0989 19.7198 30.2625 19.7198C29.5542 19.7197 28.951 19.5027 28.4763 19.0684C28.0093 18.6651 27.7454 18.0677 27.7605 17.4395C27.7606 16.7493 28.0174 16.206 28.5222 15.795C29.0271 15.3841 29.7057 15.1827 30.5496 15.1827C31.2729 15.1827 31.8607 15.3223 32.3279 15.586V15.2989C32.3279 14.8724 32.1472 14.4688 31.8308 14.1895C31.5068 13.8948 31.0914 13.7325 30.6619 13.7325C29.9839 13.7326 29.4492 14.0271 29.0574 14.6163L27.9871 13.9259C28.5597 13.0651 29.4261 12.6311 30.5789 12.6309ZM24.8289 9.77547C25.605 9.75996 26.3588 10.0628 26.9089 10.6212C28.0092 11.6761 28.0771 13.4526 27.0447 14.5929L26.9089 14.7325C26.3437 15.2831 25.6502 15.5626 24.8289 15.5626H22.824V19.503H21.6111V9.77547H24.8289ZM30.738 16.1915C30.2481 16.1915 29.8333 16.3153 29.5017 16.5557C29.1776 16.7962 29.0115 17.0994 29.0115 17.4639C29.0116 17.7896 29.1632 18.0923 29.4119 18.2784C29.683 18.4953 30.0144 18.6113 30.3533 18.6036C30.8656 18.6036 31.3558 18.3946 31.7175 18.0225C32.1169 17.6348 32.321 17.1768 32.321 16.6495C31.9442 16.3392 31.4164 16.1837 30.738 16.1915ZM22.825 14.3673H24.8601C25.3122 14.3827 25.7494 14.1968 26.0583 13.8634C26.6913 13.1885 26.676 12.1027 26.0203 11.4513C25.7113 11.1411 25.2971 10.9709 24.8601 10.9708H22.825V14.3673Z" fill="#3C4043"/>
<path d="M18.6356 14.7086C18.6356 14.3286 18.6054 13.9485 18.5451 13.5762H13.428V15.7248H16.3596C16.239 16.4151 15.8471 17.0356 15.2744 17.4235V18.8197H17.0228C18.0477 17.8501 18.6356 16.4151 18.6356 14.7086Z" fill="#4285F4"/>
<path d="M13.4282 20.1706C14.8903 20.1706 16.1262 19.6742 17.023 18.821L15.2746 17.4248C14.7848 17.7661 14.1593 17.96 13.4282 17.96C12.0114 17.96 10.8131 16.9749 10.3836 15.6562H8.5824V17.099C9.50182 18.9839 11.3784 20.1706 13.4282 20.1706Z" fill="#34A853"/>
<path d="M10.3837 15.6559C10.1576 14.9655 10.1576 14.2132 10.3837 13.5151V12.0801H8.58227C7.80591 13.6547 7.80591 15.5163 8.58227 17.0909L10.3837 15.6559Z" fill="#FBBC04"/>
<path d="M13.4282 11.211C14.2045 11.1955 14.9506 11.498 15.5082 12.0487L17.0607 10.4508C16.0735 9.50452 14.7772 8.98482 13.4282 9.00034C11.3784 9.00034 9.50182 10.1949 8.5824 12.0797L10.3836 13.5225C10.8131 12.1961 12.0114 11.211 13.4282 11.211Z" fill="#EA4335"/>
</svg>
