<svg width="48" height="32" viewBox="0 0 48 32" fill="none" xmlns="http://www.w3.org/2000/svg">
<rect x="0.3" y="0.3" width="47.4" height="31.4" rx="3.7" fill="white" stroke="#D4D4D4" stroke-width="0.6"/>
<path d="M30.5889 6C36.0195 6 40.4219 10.3299 40.4219 15.6709C40.4218 21.0119 36.0195 25.3418 30.5889 25.3418C28.1539 25.3417 25.9273 24.4692 24.21 23.0273C22.4927 24.4686 20.2674 25.3418 17.833 25.3418C12.4024 25.3418 8.00004 21.0119 8 15.6709C8 10.3299 12.4024 6 17.833 6C20.2673 6.00001 22.4938 6.87142 24.2109 8.3125C25.928 6.87139 28.1546 6.00011 30.5889 6Z" fill="#ED0006"/>
<path d="M30.589 6C36.0196 6 40.422 10.3299 40.422 15.6709C40.422 21.0119 36.0196 25.3418 30.589 25.3418C28.1545 25.3417 25.9283 24.4696 24.2111 23.0283C26.3244 21.2545 27.6661 18.6175 27.6661 15.6709C27.6661 12.724 26.3246 10.0863 24.2111 8.3125C25.9282 6.87141 28.1547 6.00005 30.589 6Z" fill="#F9A000"/>
<path d="M24.2104 8.3125C26.3242 10.0863 27.6655 12.7239 27.6655 15.6709C27.6655 18.6175 26.3237 21.2536 24.2104 23.0273C22.0977 21.2536 20.7564 18.6171 20.7563 15.6709C20.7563 12.7242 22.0971 10.0863 24.2104 8.3125Z" fill="#FF5E00"/>
</svg>
