<svg width="48" height="32" viewBox="0 0 48 32" fill="none" xmlns="http://www.w3.org/2000/svg">
<rect x="0.3" y="0.3" width="47.4" height="31.4" rx="3.7" fill="white" stroke="#D4D4D4" stroke-width="0.6"/>
<path fill-rule="evenodd" clip-rule="evenodd" d="M14.1304 20.7676H12.1014C11.9625 20.7676 11.8444 20.8685 11.8228 21.0055L11.0021 26.2086C10.9858 26.3113 11.0653 26.4039 11.1695 26.4039H12.1382C12.277 26.4039 12.3951 26.303 12.4168 26.1657L12.6381 24.7623C12.6595 24.6249 12.7778 24.5241 12.9164 24.5241H13.5587C14.8953 24.5241 15.6667 23.8773 15.8683 22.5956C15.959 22.0349 15.8721 21.5943 15.6094 21.2856C15.3211 20.9469 14.8095 20.7676 14.1304 20.7676ZM14.3645 22.6679C14.2536 23.3961 13.6973 23.3961 13.1594 23.3961H12.8532L13.068 22.0362C13.0808 21.9541 13.152 21.8936 13.235 21.8936H13.3754C13.7418 21.8936 14.0875 21.8936 14.2661 22.1024C14.3725 22.2271 14.4052 22.4122 14.3645 22.6679ZM20.1958 22.6446H19.2241C19.1413 22.6446 19.0698 22.7052 19.057 22.7874L19.0141 23.0591L18.9461 22.9607C18.7358 22.6553 18.2667 22.5533 17.7986 22.5533C16.7247 22.5533 15.8077 23.3665 15.6291 24.5074C15.5363 25.0763 15.6682 25.6205 15.991 25.9999C16.2872 26.3488 16.7109 26.4942 17.2149 26.4942C18.08 26.4942 18.5599 25.9379 18.5599 25.9379L18.5165 26.208C18.5002 26.3112 18.5797 26.4037 18.6832 26.4037H19.5585C19.6977 26.4037 19.8151 26.3028 19.837 26.1655L20.3622 22.8398C20.3788 22.7376 20.2996 22.6446 20.1958 22.6446ZM18.8413 24.5358C18.7476 25.0909 18.307 25.4635 17.7451 25.4635C17.463 25.4635 17.2374 25.373 17.0927 25.2015C16.9491 25.0313 16.8944 24.7888 16.9402 24.5189C17.0277 23.9685 17.4758 23.5837 18.0291 23.5837C18.3049 23.5837 18.5293 23.6753 18.677 23.8483C18.825 24.0231 18.8838 24.2669 18.8413 24.5358ZM24.3943 22.6445H25.3708C25.5075 22.6445 25.5873 22.7978 25.5096 22.91L22.262 27.5977C22.2095 27.6736 22.1228 27.7188 22.0303 27.7188H21.055C20.9177 27.7188 20.8376 27.5642 20.917 27.4518L21.9283 26.0244L20.8528 22.8681C20.8156 22.7584 20.8966 22.6445 21.0133 22.6445H21.9728C22.0974 22.6445 22.2074 22.7263 22.2434 22.8456L22.8141 24.7519L24.1609 22.7682C24.2136 22.6907 24.3012 22.6445 24.3943 22.6445Z" fill="#253B80"/>
<path fill-rule="evenodd" clip-rule="evenodd" d="M34.981 26.207L35.8137 20.9087C35.8265 20.8264 35.8978 20.7659 35.9805 20.7656H36.918C37.0216 20.7656 37.101 20.8584 37.0847 20.9611L36.2635 26.164C36.2421 26.3013 36.124 26.4022 35.9849 26.4022H35.1477C35.0442 26.4022 34.9647 26.3097 34.981 26.207ZM28.6035 20.7659H26.5741C26.4356 20.7659 26.3175 20.8668 26.2958 21.0038L25.4752 26.207C25.4588 26.3097 25.5383 26.4022 25.642 26.4022H26.6833C26.7801 26.4022 26.8629 26.3316 26.878 26.2355L27.1108 24.7606C27.1322 24.6232 27.2506 24.5224 27.3891 24.5224H28.0311C29.368 24.5224 30.1392 23.8756 30.3409 22.5939C30.432 22.0332 30.3445 21.5926 30.082 21.2839C29.7938 20.9452 29.2826 20.7659 28.6035 20.7659ZM28.8376 22.6663C28.727 23.3944 28.1706 23.3944 27.6324 23.3944H27.3265L27.5417 22.0346C27.5544 21.9524 27.625 21.8919 27.7083 21.8919H27.8487C28.2148 21.8919 28.5608 21.8919 28.7393 22.1007C28.8459 22.2254 28.8783 22.4105 28.8376 22.6663ZM34.6684 22.6429H33.6974C33.6139 22.6429 33.5431 22.7035 33.5306 22.7857L33.4876 23.0574L33.4193 22.959C33.209 22.6536 32.7403 22.5516 32.2721 22.5516C31.1982 22.5516 30.2815 23.3649 30.1029 24.5057C30.0103 25.0747 30.1417 25.6188 30.4645 25.9983C30.7612 26.3471 31.1844 26.4925 31.6884 26.4925C32.5535 26.4925 33.0333 25.9362 33.0333 25.9362L32.99 26.2063C32.9737 26.3095 33.0532 26.4021 33.1574 26.4021H34.0323C34.1708 26.4021 34.2889 26.3012 34.3106 26.1639L34.836 22.8382C34.8521 22.7359 34.7726 22.6429 34.6684 22.6429ZM33.314 24.5341C33.2208 25.0892 32.7797 25.4618 32.2177 25.4618C31.9361 25.4618 31.7101 25.3714 31.5652 25.1999C31.4216 25.0296 31.3677 24.7871 31.4128 24.5172C31.5008 23.9668 31.9483 23.5821 32.5016 23.5821C32.7776 23.5821 33.0018 23.6736 33.1497 23.8466C33.2982 24.0214 33.357 24.2653 33.314 24.5341Z" fill="#179BD7"/>
<path d="M21.6396 18.9054L21.889 17.321L21.3334 17.3081H18.6801L20.524 5.61611C20.5296 5.58081 20.5483 5.5479 20.5755 5.52453C20.6027 5.50116 20.6375 5.48828 20.6738 5.48828H25.1477C26.633 5.48828 27.658 5.79736 28.1932 6.4074C28.444 6.69358 28.6038 6.99264 28.6811 7.32175C28.7621 7.66708 28.7636 8.07966 28.6844 8.58286L28.6787 8.61959V8.94201L28.9296 9.08416C29.1409 9.19624 29.3087 9.32454 29.4375 9.47145C29.6523 9.71614 29.7911 10.0271 29.8497 10.3958C29.9102 10.775 29.8902 11.2262 29.7911 11.7371C29.6766 12.3247 29.4915 12.8365 29.2416 13.2553C29.0116 13.6411 28.7187 13.9611 28.3711 14.2092C28.0391 14.4448 27.6446 14.6237 27.1987 14.7382C26.7665 14.8507 26.2738 14.9075 25.7334 14.9075H25.3852C25.1363 14.9075 24.8944 14.9972 24.7046 15.1579C24.5143 15.322 24.3883 15.5461 24.3497 15.7913L24.3235 15.934L23.8828 18.7265L23.8627 18.8291C23.8575 18.8616 23.8484 18.8778 23.8351 18.8888C23.8232 18.8987 23.806 18.9054 23.7893 18.9054H21.6396Z" fill="#253B80"/>
<path d="M29.1672 8.65625C29.1538 8.74162 29.1386 8.8289 29.1214 8.91858C28.5313 11.9478 26.5129 12.9943 23.9348 12.9943H22.6222C22.307 12.9943 22.0413 13.2232 21.9921 13.5342L21.32 17.7965L21.1298 19.0046C21.0978 19.2087 21.2552 19.3928 21.4612 19.3928H23.7894C24.0651 19.3928 24.2992 19.1925 24.3426 18.9207L24.3655 18.8023L24.8039 16.0206L24.832 15.8681C24.8749 15.5953 25.1095 15.3949 25.3852 15.3949H25.7334C27.989 15.3949 29.7548 14.4791 30.2709 11.829C30.4865 10.722 30.3749 9.79764 29.8044 9.14752C29.6318 8.95149 29.4176 8.78884 29.1672 8.65625Z" fill="#179BD7"/>
<path d="M28.5498 8.41099C28.4597 8.38475 28.3667 8.3609 28.2712 8.33944C28.1754 8.31846 28.0771 8.29986 27.976 8.28364C27.6221 8.2264 27.2343 8.19922 26.8189 8.19922H23.3122C23.2259 8.19922 23.1439 8.21877 23.0704 8.25407C22.9087 8.33181 22.7886 8.48493 22.7595 8.67237L22.0134 13.3972L21.9919 13.5351C22.0411 13.2241 22.3068 12.9951 22.622 12.9951H23.9346C26.5127 12.9951 28.5313 11.9482 29.1213 8.91944C29.1388 8.82977 29.1537 8.74249 29.167 8.65711C29.0177 8.57793 28.856 8.5102 28.6819 8.45248C28.6391 8.43818 28.5947 8.42435 28.5498 8.41099Z" fill="#222D65"/>
<path d="M22.7595 8.67219C22.7886 8.48473 22.9089 8.33163 23.0705 8.25436C23.1445 8.21906 23.226 8.1995 23.3122 8.1995H26.819C27.2345 8.1995 27.6222 8.22669 27.9761 8.28393C28.0772 8.30014 28.1755 8.31875 28.2714 8.33973C28.3668 8.3612 28.4598 8.38505 28.55 8.41128C28.5947 8.42463 28.6391 8.43846 28.6825 8.4523C28.8566 8.51001 29.0183 8.57822 29.1675 8.65692C29.3431 7.53747 29.1662 6.77528 28.561 6.0851C27.8937 5.32529 26.6893 5 25.1482 5H20.6742C20.3593 5 20.0909 5.22893 20.0422 5.5404L18.1787 17.3525C18.1419 17.5862 18.3222 17.7971 18.5578 17.7971H21.32L22.0135 13.397L22.7595 8.67219Z" fill="#253B80"/>
</svg>
