<svg width="48" height="32" viewBox="0 0 48 32" fill="none" xmlns="http://www.w3.org/2000/svg">
<rect x="0.3" y="0.3" width="47.4" height="31.4" rx="3.7" fill="white" stroke="#D4D4D4" stroke-width="0.6"/>
<path d="M30.5039 11.9121C32.0975 11.9123 33.6002 13.3685 33.6094 16.041C33.6094 18.9627 32.1243 20.29 30.4941 20.29C29.6929 20.29 29.2106 19.9486 28.8828 19.709L28.873 22.3174L26.5967 22.8057V12.0596H28.6006L28.7188 12.6309C29.0375 12.3359 29.6116 11.9121 30.5039 11.9121ZM11.0781 11.9121C11.834 11.9121 12.581 12.0318 13.3369 12.3359V14.502C12.6448 14.1241 11.7703 13.9121 11.0781 13.9121C10.5955 13.9121 10.3037 14.0507 10.3037 14.4102C10.3045 15.4419 13.7741 14.954 13.7832 17.7002C13.7832 19.3499 12.4802 20.2988 10.5859 20.2988C9.80291 20.2988 8.94732 20.142 8.10059 19.7734V17.5801C8.8654 18.0039 9.83019 18.3173 10.5859 18.3174C11.0958 18.3174 11.4607 18.1795 11.4609 17.7559C11.4609 16.6591 8.0001 17.0642 8 14.5205C8 12.8892 9.22939 11.9121 11.0781 11.9121ZM16.4512 12.0684H18.1816V14.0312H16.4512V17.3037C16.4514 18.6671 17.8899 18.2439 18.1816 18.124V19.9941C17.8811 20.16 17.3347 20.2988 16.5879 20.2988C15.24 20.2988 14.2295 19.2937 14.2295 17.9297L14.2383 10.5479L16.46 10.0684L16.4512 12.0684ZM37.498 11.9121C39.6562 11.9122 40.785 13.7736 40.7852 16.1328C40.7852 16.3537 40.7676 16.8326 40.7676 16.9531H36.3145C36.4146 18.0407 37.1977 18.3545 38.0811 18.3545C38.9825 18.3545 39.6933 18.161 40.3125 17.8477V19.6904C39.6932 20.0407 38.8728 20.29 37.7891 20.29C35.5672 20.2899 34.0187 18.889 34.0186 16.1152C34.0186 13.7742 35.3305 11.9121 37.498 11.9121ZM21.0146 12.752C21.5519 11.7568 22.6167 11.9597 22.9082 12.0703V14.1895C22.6255 14.0881 21.7149 13.9595 21.1777 14.6689V20.1348H18.9014V12.0703H20.8682L21.0146 12.752ZM25.75 20.1328H23.4639V12.0684H25.75V20.1328ZM29.957 13.959C29.438 13.959 29.1098 14.1429 28.873 14.4102L28.8828 17.8301C29.1014 18.0696 29.4199 18.2627 29.957 18.2627C30.7949 18.2627 31.3594 17.3415 31.3594 16.1064C31.3594 14.8991 30.7858 13.959 29.957 13.959ZM37.4893 13.7832C36.9155 13.7832 36.2871 14.2163 36.2871 15.2578H38.6367C38.6367 14.2166 38.0447 13.7834 37.4893 13.7832ZM25.75 10.8711L23.4639 11.3691V9.48828L25.75 9V10.8711Z" fill="#6461FC"/>
</svg>
