<svg width="48" height="32" viewBox="0 0 48 32" fill="none" xmlns="http://www.w3.org/2000/svg">
<rect x="0.3" y="0.3" width="47.4" height="31.4" rx="3.7" fill="white" stroke="#D4D4D4" stroke-width="0.6"/>
<path fill-rule="evenodd" clip-rule="evenodd" d="M15.8753 21.1198H13.1492L11.1049 13.2078C11.0079 12.8439 10.8019 12.5221 10.4988 12.3705C9.74254 11.9894 8.90915 11.6861 8 11.5331V11.2285H12.3916C12.9977 11.2285 13.4523 11.6861 13.528 12.2175L14.5887 17.9247L17.3135 11.2285H19.9639L15.8753 21.1198ZM21.4791 21.1198H18.9045L21.0245 11.2285H23.5991L21.4791 21.1198ZM26.93 13.9683C27.0058 13.4356 27.4604 13.131 27.9907 13.131C28.8241 13.0545 29.7319 13.2075 30.4896 13.5872L30.9441 11.4576C30.1865 11.153 29.3531 11 28.5968 11C26.098 11 24.2797 12.3701 24.2797 14.2716C24.2797 15.7182 25.5676 16.4777 26.4768 16.9353C27.4604 17.3916 27.8392 17.6962 27.7634 18.1525C27.7634 18.8368 27.0058 19.1415 26.2495 19.1415C25.3404 19.1415 24.4312 18.9133 23.5991 18.5322L23.1446 20.6632C24.0537 21.043 25.0373 21.1959 25.9465 21.1959C28.7484 21.2711 30.4896 19.9023 30.4896 17.8478C30.4896 15.2606 26.93 15.109 26.93 13.9683V13.9683ZM39.5 21.1198L37.4558 11.2285H35.26C34.8054 11.2285 34.3508 11.5331 34.1993 11.9894L30.4138 21.1198H33.0642L33.5932 19.6746H36.8497L37.1527 21.1198H39.5ZM35.6388 13.8926L36.3951 17.6205H34.275L35.6388 13.8926Z" fill="#172B85"/>
</svg>
