<svg width="48" height="32" viewBox="0 0 48 32" fill="none" xmlns="http://www.w3.org/2000/svg">
<rect x="0.3" y="0.3" width="47.4" height="31.4" rx="3.7" fill="white" stroke="#D4D4D4" stroke-width="0.6"/>
<path d="M26.1321 25.5651C31.3554 25.5907 36.123 21.2038 36.123 15.8672C36.123 10.0318 31.3554 5.99782 26.1321 6H21.6366C16.3511 5.99782 12 10.0329 12 15.8672C12 21.2049 16.3511 25.5907 21.6366 25.5651H26.1321Z" fill="#0079BE"/>
<path d="M21.6581 6.80859C16.8277 6.81023 12.9141 10.8181 12.9125 15.7648C12.9141 20.7109 16.8277 24.7188 21.6581 24.7205C26.4891 24.7188 30.4043 20.7109 30.4048 15.7648C30.4043 10.8181 26.4896 6.81023 21.6581 6.80859ZM16.1149 15.7648C16.1139 14.6211 16.453 13.5037 17.0879 12.5586C17.7228 11.6135 18.624 10.8847 19.6737 10.4674V21.0616C18.6239 20.6447 17.7226 19.916 17.0877 18.971C16.4527 18.0259 16.1137 16.9085 16.1149 15.7648V15.7648ZM23.642 21.0638V10.4669C24.6925 10.8835 25.5945 11.6123 26.2298 12.5577C26.8652 13.5031 27.2044 14.6211 27.203 15.7653C27.2042 16.9095 26.8649 18.0274 26.2296 18.9728C25.5942 19.9182 24.6924 20.647 23.642 21.0638V21.0638Z" fill="white"/>
<path d="M26.1321 25.5651C31.3554 25.5907 36.123 21.2038 36.123 15.8672C36.123 10.0318 31.3554 5.99782 26.1321 6H21.6366C16.3511 5.99782 12 10.0329 12 15.8672C12 21.2049 16.3511 25.5907 21.6366 25.5651H26.1321Z" fill="#0079BE"/>
<path d="M21.6581 6.80859C16.8277 6.81023 12.9141 10.8181 12.9125 15.7648C12.9141 20.7109 16.8277 24.7188 21.6581 24.7205C26.4891 24.7188 30.4043 20.7109 30.4048 15.7648C30.4043 10.8181 26.4896 6.81023 21.6581 6.80859ZM16.1149 15.7648C16.1139 14.6211 16.453 13.5037 17.0879 12.5586C17.7228 11.6135 18.624 10.8847 19.6737 10.4674V21.0616C18.6239 20.6447 17.7226 19.916 17.0877 18.971C16.4527 18.0259 16.1137 16.9085 16.1149 15.7648V15.7648ZM23.642 21.0638V10.4669C24.6925 10.8835 25.5945 11.6123 26.2298 12.5577C26.8652 13.5031 27.2044 14.6211 27.203 15.7653C27.2042 16.9095 26.8649 18.0274 26.2296 18.9728C25.5942 19.9182 24.6924 20.647 23.642 21.0638V21.0638Z" fill="white"/>
</svg>
