<svg width="169" height="40" viewBox="0 0 169 40" fill="none" xmlns="http://www.w3.org/2000/svg">
<path opacity="0.8" d="M19.9658 21.6667C19.5423 16.5337 15.2422 12.5 10 12.5C4.47715 12.5 0 16.9772 0 22.5C0 28.0228 4.47715 32.5 10 32.5H25V21.6667H19.9658Z" fill="black"/>
<circle cx="24.1665" cy="20" r="12.5" fill="black"/>
<path d="M44.0801 20.167C44.0801 18.5026 44.399 17.0481 45.0367 15.8037C45.6901 14.5437 46.6156 13.5715 47.8134 12.887C49.0267 12.2026 50.4501 11.8604 52.0834 11.8604C53.359 11.8604 54.5023 12.1092 55.5134 12.607C56.5245 13.1048 57.3412 13.8048 57.9634 14.707C58.5856 15.6092 58.959 16.6515 59.0834 17.8337H55.5834C55.3812 16.9004 54.9534 16.1692 54.3001 15.6404C53.6623 15.0959 52.8612 14.8237 51.8967 14.8237C50.5901 14.8237 49.5556 15.3137 48.7934 16.2937C48.0312 17.2737 47.6501 18.5648 47.6501 20.167C47.6501 21.7537 48.0312 23.0448 48.7934 24.0404C49.5556 25.0204 50.5901 25.5104 51.8967 25.5104C52.8612 25.5104 53.6623 25.2459 54.3001 24.717C54.9534 24.1726 55.3812 23.4337 55.5834 22.5004H59.0834C58.959 23.6826 58.5856 24.7248 57.9634 25.627C57.3412 26.5292 56.5245 27.2292 55.5134 27.727C54.5023 28.2248 53.359 28.4737 52.0834 28.4737C50.4501 28.4737 49.0267 28.1315 47.8134 27.447C46.6156 26.7626 45.6901 25.7981 45.0367 24.5537C44.399 23.2937 44.0801 21.8315 44.0801 20.167Z" fill="black"/>
<path d="M59.9269 12.0004H63.2169V28.3337H59.9269V12.0004Z" fill="black"/>
<path d="M70.4329 28.4737C69.1729 28.4737 68.0607 28.2248 67.0962 27.727C66.1473 27.2137 65.4084 26.4904 64.8796 25.557C64.3662 24.6237 64.1096 23.5504 64.1096 22.337C64.1096 21.1237 64.3662 20.0504 64.8796 19.117C65.4084 18.1837 66.1473 17.4681 67.0962 16.9704C68.0607 16.457 69.1729 16.2004 70.4329 16.2004C71.6929 16.2004 72.7973 16.457 73.7462 16.9704C74.7107 17.4681 75.4496 18.1837 75.9629 19.117C76.4918 20.0504 76.7562 21.1237 76.7562 22.337C76.7562 23.5659 76.4918 24.647 75.9629 25.5804C75.4496 26.4981 74.7107 27.2137 73.7462 27.727C72.7973 28.2248 71.6929 28.4737 70.4329 28.4737ZM70.4329 25.7903C71.3507 25.7903 72.074 25.4715 72.6029 24.8337C73.1473 24.1959 73.4196 23.3637 73.4196 22.337C73.4196 21.3104 73.1473 20.4781 72.6029 19.8404C72.074 19.2026 71.3507 18.8837 70.4329 18.8837C69.5307 18.8837 68.8073 19.2026 68.2629 19.8404C67.734 20.4781 67.4696 21.3104 67.4696 22.337C67.4696 23.3637 67.734 24.1959 68.2629 24.8337C68.8073 25.4715 69.5307 25.7903 70.4329 25.7903Z" fill="black"/>
<path d="M88.9271 16.3404V28.3337H86.0104L85.7071 26.887C85.2871 27.3848 84.7971 27.7737 84.2371 28.0537C83.6771 28.3337 82.9927 28.4737 82.1838 28.4737C80.7838 28.4737 79.6404 28.0459 78.7538 27.1904C77.8671 26.3192 77.4238 24.8726 77.4238 22.8504V16.3404H80.7138V22.4537C80.7138 23.5426 80.9004 24.367 81.2738 24.927C81.6627 25.4715 82.2538 25.7437 83.0471 25.7437C83.8716 25.7437 84.5093 25.4404 84.9604 24.8337C85.4116 24.2115 85.6371 23.3481 85.6371 22.2437V16.3404H88.9271Z" fill="black"/>
<path d="M102.275 12.0004V28.3337H99.4045L99.0778 26.677C98.1601 27.8748 96.9156 28.4737 95.3445 28.4737C94.2867 28.4737 93.3378 28.2248 92.4978 27.727C91.6578 27.2137 90.9967 26.4904 90.5145 25.557C90.0478 24.6237 89.8145 23.5426 89.8145 22.3137C89.8145 21.1004 90.0478 20.0348 90.5145 19.117C90.9967 18.1837 91.6578 17.4681 92.4978 16.9704C93.3534 16.457 94.3101 16.2004 95.3678 16.2004C96.9234 16.2004 98.1289 16.7448 98.9845 17.8337V12.0004H102.275ZM96.1145 25.7903C97.0012 25.7903 97.7089 25.4792 98.2378 24.857C98.7667 24.2192 99.0312 23.387 99.0312 22.3604C99.0312 21.3181 98.7667 20.4781 98.2378 19.8404C97.7089 19.2026 97.0012 18.8837 96.1145 18.8837C95.2278 18.8837 94.5123 19.2026 93.9678 19.8404C93.4389 20.4781 93.1745 21.3104 93.1745 22.337C93.1745 23.3637 93.4389 24.1959 93.9678 24.8337C94.5123 25.4715 95.2278 25.7903 96.1145 25.7903Z" fill="black"/>
<path d="M102.702 12.0004L106.318 11.977L109.328 23.9237L112.525 12.0004H115.675L118.778 23.9237L121.858 12.0004H125.405L120.878 28.3337H116.842L114.018 17.4837L111.265 28.3337H107.228L102.702 12.0004Z" fill="black"/>
<path d="M136.383 25.557V28.3337H134.703C133.194 28.3337 132.455 27.6804 132.487 26.3737C132.051 27.0581 131.514 27.5792 130.877 27.937C130.239 28.2948 129.469 28.4737 128.567 28.4737C127.229 28.4737 126.148 28.1704 125.323 27.5637C124.514 26.9415 124.11 26.0704 124.11 24.9504C124.11 23.6748 124.577 22.6948 125.51 22.0104C126.459 21.3104 127.828 20.9604 129.617 20.9604H131.997V20.377C131.997 19.8326 131.794 19.4048 131.39 19.0937C130.986 18.767 130.441 18.6037 129.757 18.6037C129.15 18.6037 128.652 18.7359 128.263 19.0004C127.874 19.2648 127.641 19.6226 127.563 20.0737H124.39C124.499 18.8448 125.043 17.8959 126.023 17.227C127.003 16.5426 128.302 16.2004 129.92 16.2004C131.616 16.2004 132.922 16.5737 133.84 17.3204C134.773 18.067 135.24 19.1481 135.24 20.5637V24.787C135.24 25.0826 135.302 25.2848 135.427 25.3937C135.551 25.5026 135.745 25.557 136.01 25.557H136.383ZM131.997 23.1537H129.593C128.909 23.1537 128.372 23.2937 127.983 23.5737C127.61 23.8381 127.423 24.2192 127.423 24.717C127.423 25.137 127.579 25.4715 127.89 25.7204C128.217 25.9692 128.652 26.0937 129.197 26.0937C130.052 26.0937 130.729 25.8526 131.227 25.3704C131.724 24.8726 131.981 24.2115 131.997 23.387V23.1537Z" fill="black"/>
<path d="M137.493 19.117H135.509V16.3404H137.493V12.9804H140.783V16.3404H143.513V19.117H140.783V24.367C140.783 24.787 140.868 25.0903 141.039 25.277C141.226 25.4637 141.529 25.557 141.949 25.557H143.653V28.3337H140.923C138.636 28.3337 137.493 27.1904 137.493 24.9037V19.117Z" fill="black"/>
<path d="M155.451 23.7837C155.233 25.2459 154.611 26.397 153.584 27.237C152.573 28.0615 151.259 28.4737 149.641 28.4737C148.396 28.4737 147.307 28.2248 146.374 27.727C145.441 27.2137 144.717 26.4904 144.204 25.557C143.706 24.6237 143.457 23.5504 143.457 22.337C143.457 21.1081 143.706 20.0348 144.204 19.117C144.717 18.1837 145.441 17.4681 146.374 16.9704C147.323 16.457 148.42 16.2004 149.664 16.2004C151.266 16.2004 152.573 16.6126 153.584 17.437C154.595 18.2459 155.217 19.3737 155.451 20.8204H152.044C151.904 20.2292 151.624 19.7626 151.204 19.4204C150.784 19.0626 150.263 18.8837 149.641 18.8837C148.785 18.8837 148.101 19.2026 147.587 19.8404C147.074 20.4781 146.817 21.3104 146.817 22.337C146.817 23.3637 147.074 24.1959 147.587 24.8337C148.101 25.4715 148.785 25.7903 149.641 25.7903C150.279 25.7903 150.807 25.6115 151.227 25.2537C151.663 24.8959 151.943 24.4059 152.067 23.7837H155.451Z" fill="black"/>
<path d="M163.135 16.2004C164.55 16.2004 165.709 16.6359 166.611 17.507C167.529 18.3781 167.988 19.817 167.988 21.8237V28.3337H164.698V21.9637C164.698 20.9681 164.496 20.2137 164.091 19.7004C163.687 19.1715 163.08 18.907 162.271 18.907C161.431 18.907 160.77 19.1948 160.288 19.7704C159.821 20.3459 159.588 21.147 159.588 22.1737V28.3337H156.298V12.0004H159.588V17.8104C160.475 16.737 161.657 16.2004 163.135 16.2004Z" fill="black"/>
</svg>
