<svg width="146" height="40" viewBox="0 0 146 40" fill="none" xmlns="http://www.w3.org/2000/svg">
<path d="M12.315 16.2084C17.1157 13.9124 20.8729 10.0161 23.0297 5.1458C21.6382 3.6847 19.8292 2.64106 17.8811 2.01487L16.8374 1.66699C16.7679 1.80614 16.6983 2.01488 16.6983 2.15403C15.0285 6.88522 11.6192 10.7119 7.0272 12.8688C3.8267 14.3994 1.4611 17.1825 0.347881 20.5221L0 21.5658C0.139152 21.6354 0.347884 21.7049 0.487037 21.7049C1.80898 22.192 3.13093 22.8182 4.3833 23.5835C6.12271 20.4526 8.90575 17.8087 12.315 16.2084Z" fill="black"/>
<path opacity="0.8" d="M32.4921 16.4863C29.9178 20.3826 26.3694 23.5135 21.9861 25.6008C18.4377 27.2706 15.7243 30.4016 14.4719 34.1587L14.124 35.3415C15.446 36.5243 17.0462 37.4288 18.7856 37.9854L19.8293 38.3333C19.8988 38.1941 19.9684 37.9854 19.9684 37.8462C21.6382 33.115 25.0475 29.2884 29.6395 27.1315C32.84 25.6008 35.2752 22.8178 36.3188 19.4781L36.6667 18.4345C35.2056 18.017 33.8141 17.3212 32.4921 16.4863Z" fill="black"/>
<path opacity="0.9" d="M11.3411 31.7236C13.0805 27.549 16.281 24.1398 20.386 22.1916C24.1431 20.3827 27.274 17.5996 29.4309 14.1904C27.8306 12.6597 26.5087 10.9203 25.5346 8.83301C22.9603 13.5642 18.9249 17.3909 13.985 19.7565C11.1324 21.0784 8.83635 23.3745 7.44482 26.1575C8.9755 27.6186 10.2279 29.4276 11.2019 31.4453C11.2019 31.4453 11.2715 31.5844 11.3411 31.7236Z" fill="black"/>
<path d="M44.9585 28.3338H56.6835V25.0838H48.7335V10.8338H44.9585V28.3338Z" fill="black"/>
<path d="M68.9333 15.7338H65.4333V22.6338C65.4333 24.2338 64.3583 25.4338 62.8333 25.4338C61.4083 25.4338 60.4083 24.3338 60.4083 22.8088V15.7338H56.9333V23.5838C56.9333 26.4588 58.7833 28.5338 61.6083 28.5338C63.3333 28.5338 64.7333 27.7838 65.4333 26.5838V28.3338H68.9333V15.7338Z" fill="black"/>
<path d="M70.2335 28.3338H73.7335V21.1838C73.7335 19.5588 74.6585 18.4838 76.1085 18.4838C77.4585 18.4838 78.3085 19.5588 78.3085 21.1838V28.3338H81.8085V21.1838C81.8085 19.5588 82.7335 18.4838 84.1835 18.4838C85.5335 18.4838 86.4085 19.5588 86.4085 21.1838V28.3338H89.8835V20.0838C89.8835 17.5588 88.1085 15.5338 85.3585 15.5338C83.3335 15.5338 81.7585 16.6088 81.1585 17.8338C80.5585 16.3338 79.2835 15.5338 77.3085 15.5338C75.6085 15.5338 74.4085 16.3588 73.7335 17.5088V15.7338H70.2335V28.3338Z" fill="black"/>
<path d="M91.0759 10.2588V13.9338H94.7759V10.2588H91.0759ZM91.1759 28.3338H94.6759V15.7338H91.1759V28.3338Z" fill="black"/>
<path d="M95.9806 28.3338H99.4806V21.4338C99.4806 19.8088 100.556 18.6338 102.081 18.6338C103.531 18.6338 104.506 19.7338 104.506 21.2588V28.3338H108.006V20.4838C108.006 17.5838 106.156 15.5338 103.306 15.5338C101.581 15.5338 100.181 16.2588 99.4806 17.4838V15.7338H95.9806V28.3338Z" fill="black"/>
<path d="M115.306 28.5338C119.181 28.5338 121.956 25.7838 121.956 22.0338C121.956 18.2838 119.181 15.5338 115.306 15.5338C111.431 15.5338 108.656 18.2838 108.656 22.0338C108.656 25.7838 111.431 28.5338 115.306 28.5338ZM115.306 25.5338C113.431 25.5338 112.156 24.1088 112.156 22.0338C112.156 19.9338 113.431 18.5088 115.306 18.5088C117.181 18.5088 118.456 19.9338 118.456 22.0338C118.456 24.1088 117.181 25.5338 115.306 25.5338Z" fill="black"/>
<path d="M134.632 15.7338H131.132V22.6338C131.132 24.2338 130.057 25.4338 128.532 25.4338C127.107 25.4338 126.107 24.3338 126.107 22.8088V15.7338H122.632V23.5838C122.632 26.4588 124.482 28.5338 127.307 28.5338C129.032 28.5338 130.432 27.7838 131.132 26.5838V28.3338H134.632V15.7338Z" fill="black"/>
<path d="M140.532 28.5338C143.482 28.5338 145.432 26.9588 145.432 24.5588C145.432 18.8588 138.532 21.7838 138.532 19.2088C138.532 18.4088 139.207 17.9838 140.182 17.9838C141.132 17.9838 142.107 18.5588 142.257 19.6338H145.282C145.157 17.1588 143.107 15.5338 140.082 15.5338C137.507 15.5338 135.582 17.1088 135.582 19.3338C135.582 24.6338 142.357 22.1088 142.357 24.6838C142.357 25.3838 141.607 25.9088 140.532 25.9088C139.232 25.9088 138.357 25.2088 138.232 24.0838H135.232C135.357 26.8088 137.457 28.5338 140.532 28.5338Z" fill="black"/>
</svg>
