<svg width="140" height="40" viewBox="0 0 140 40" fill="none" xmlns="http://www.w3.org/2000/svg">
<path fill-rule="evenodd" clip-rule="evenodd" d="M16.4712 2.87351C16.0504 2.78695 15.6163 2.78695 15.1954 2.87351C14.7089 2.97357 14.2741 3.21712 13.9284 3.41075L13.8342 3.46338L2.11794 9.97241C2.08555 9.9904 2.05217 10.0088 2.01797 10.0276C1.65203 10.2292 1.1919 10.4826 0.838557 10.8661C0.533062 11.1976 0.301872 11.5905 0.160446 12.0185C-0.00313321 12.5136 -0.00121938 13.0389 0.000302631 13.4567C0.000444908 13.4957 0.000583684 13.5338 0.000583684 13.5709V26.4225C0.000583684 26.4596 0.000444908 26.4977 0.000302631 26.5367C-0.00121938 26.9545 -0.00313321 27.4798 0.160446 27.9749C0.301873 28.4029 0.533064 28.7958 0.838558 29.1273C1.19191 29.5108 1.65203 29.7642 2.01797 29.9658C2.05217 29.9846 2.08555 30.003 2.11794 30.021L13.8342 36.53L13.9284 36.5826C14.2741 36.7763 14.7089 37.0198 15.1954 37.1199C15.6163 37.2064 16.0504 37.2064 16.4712 37.1199C16.9577 37.0198 17.3926 36.7763 17.7383 36.5826L17.8325 36.53L29.5487 30.021C29.563 30.013 29.5776 30.005 29.5922 29.9969C29.6108 29.9866 29.6296 29.9763 29.6487 29.9658C30.0146 29.7642 30.4748 29.5108 30.8281 29.1273C31.1336 28.7958 31.3648 28.4029 31.5062 27.9749C31.6698 27.4798 31.6679 26.9545 31.6664 26.5367C31.6662 26.4977 31.6661 26.4595 31.6661 26.4225V13.5709C31.6661 13.5338 31.6662 13.4957 31.6664 13.4567C31.6679 13.0389 31.6698 12.5136 31.5062 12.0185C31.3648 11.5905 31.1336 11.1976 30.8281 10.866C30.4748 10.4826 30.0146 10.2292 29.6487 10.0276L29.6474 10.0269C29.6136 10.0083 29.5807 9.99017 29.5487 9.9724L17.8325 3.46338L17.7383 3.41074C17.3926 3.21712 16.9577 2.97357 16.4712 2.87351ZM15.372 6.23145C15.6119 6.09815 15.7344 6.0308 15.8258 5.98673L15.8333 5.98311L15.8409 5.98673C15.9323 6.0308 16.0547 6.09815 16.2947 6.23145L26.8226 12.0803L15.8333 18.1854L4.84404 12.0803L15.372 6.23145ZM3.16713 14.7711L14.25 20.9282L14.2501 33.1386L3.65576 27.2529C3.40251 27.1122 3.27321 27.0396 3.18249 26.9818L3.17483 26.9769L3.17426 26.9678C3.16779 26.8605 3.16713 26.7122 3.16713 26.4225V14.7711Z" fill="black"/>
<path d="M46.0755 25.2879H51.1155V28.2579H42.228V12.4629H46.0755V25.2879Z" fill="black"/>
<path d="M54.6607 14.3979C53.9857 14.3979 53.4307 14.2029 52.9957 13.8129C52.5757 13.4079 52.3657 12.9129 52.3657 12.3279C52.3657 11.7279 52.5757 11.2329 52.9957 10.8429C53.4307 10.4379 53.9857 10.2354 54.6607 10.2354C55.3207 10.2354 55.8607 10.4379 56.2807 10.8429C56.7157 11.2329 56.9332 11.7279 56.9332 12.3279C56.9332 12.9129 56.7157 13.4079 56.2807 13.8129C55.8607 14.2029 55.3207 14.3979 54.6607 14.3979ZM56.5732 15.7029V28.2579H52.7257V15.7029H56.5732Z" fill="black"/>
<path d="M63.9064 15.5229C64.7914 15.5229 65.5639 15.7029 66.2239 16.0629C66.8989 16.4229 67.4164 16.8954 67.7764 17.4804V15.7029H71.6239V28.2354C71.6239 29.3904 71.3914 30.4329 70.9264 31.3629C70.4764 32.3079 69.7789 33.0579 68.8339 33.6129C67.9039 34.1679 66.7414 34.4454 65.3464 34.4454C63.4864 34.4454 61.9789 34.0029 60.8239 33.1179C59.6689 32.2479 59.0089 31.0629 58.8439 29.5629H62.6464C62.7664 30.0429 63.0514 30.4179 63.5014 30.6879C63.9514 30.9729 64.5064 31.1154 65.1664 31.1154C65.9614 31.1154 66.5914 30.8829 67.0564 30.4179C67.5364 29.9679 67.7764 29.2404 67.7764 28.2354V26.4579C67.4014 27.0429 66.8839 27.5229 66.2239 27.8979C65.5639 28.2579 64.7914 28.4379 63.9064 28.4379C62.8714 28.4379 61.9339 28.1754 61.0939 27.6504C60.2539 27.1104 59.5864 26.3529 59.0914 25.3779C58.6114 24.3879 58.3714 23.2479 58.3714 21.9579C58.3714 20.6679 58.6114 19.5354 59.0914 18.5604C59.5864 17.5854 60.2539 16.8354 61.0939 16.3104C61.9339 15.7854 62.8714 15.5229 63.9064 15.5229ZM67.7764 21.9804C67.7764 21.0204 67.5064 20.2629 66.9664 19.7079C66.4414 19.1529 65.7964 18.8754 65.0314 18.8754C64.2664 18.8754 63.6139 19.1529 63.0739 19.7079C62.5489 20.2479 62.2864 20.9979 62.2864 21.9579C62.2864 22.9179 62.5489 23.6829 63.0739 24.2529C63.6139 24.8079 64.2664 25.0854 65.0314 25.0854C65.7964 25.0854 66.4414 24.8079 66.9664 24.2529C67.5064 23.6979 67.7764 22.9404 67.7764 21.9804Z" fill="black"/>
<path d="M81.8999 15.5679C83.3399 15.5679 84.4949 16.0479 85.3649 17.0079C86.2349 17.9529 86.6699 19.2579 86.6699 20.9229V28.2579H82.8449V21.4404C82.8449 20.6004 82.6274 19.9479 82.1924 19.4829C81.7574 19.0179 81.1724 18.7854 80.4374 18.7854C79.7024 18.7854 79.1174 19.0179 78.6824 19.4829C78.2474 19.9479 78.0299 20.6004 78.0299 21.4404V28.2579H74.1824V11.6079H78.0299V17.3904C78.4199 16.8354 78.9524 16.3929 79.6274 16.0629C80.3024 15.7329 81.0599 15.5679 81.8999 15.5679Z" fill="black"/>
<path d="M96.116 24.9954V28.2579H94.1586C92.7636 28.2579 91.6761 27.9204 90.8961 27.2454C90.1161 26.5554 89.7261 25.4379 89.7261 23.8929V18.8979H88.1961V15.7029H89.7261V12.6429H93.5736V15.7029H96.0935V18.8979H93.5736V23.9379C93.5736 24.3129 93.6636 24.5829 93.8436 24.7479C94.0236 24.9129 94.3236 24.9954 94.7436 24.9954H96.116Z" fill="black"/>
<path d="M101.882 17.4804C102.242 16.8954 102.759 16.4229 103.434 16.0629C104.109 15.7029 104.882 15.5229 105.752 15.5229C106.787 15.5229 107.724 15.7854 108.564 16.3104C109.404 16.8354 110.064 17.5854 110.544 18.5604C111.039 19.5354 111.287 20.6679 111.287 21.9579C111.287 23.2479 111.039 24.3879 110.544 25.3779C110.064 26.3529 109.404 27.1104 108.564 27.6504C107.724 28.1754 106.787 28.4379 105.752 28.4379C104.867 28.4379 104.094 28.2654 103.434 27.9204C102.774 27.5604 102.257 27.0879 101.882 26.5029V28.2579H98.0342V11.6079H101.882V17.4804ZM107.372 21.9579C107.372 20.9979 107.102 20.2479 106.562 19.7079C106.037 19.1529 105.384 18.8754 104.604 18.8754C103.839 18.8754 103.187 19.1529 102.647 19.7079C102.122 20.2629 101.859 21.0204 101.859 21.9804C101.859 22.9404 102.122 23.6979 102.647 24.2529C103.187 24.8079 103.839 25.0854 104.604 25.0854C105.369 25.0854 106.022 24.8079 106.562 24.2529C107.102 23.6829 107.372 22.9179 107.372 21.9579Z" fill="black"/>
<path d="M118.795 28.4379C117.565 28.4379 116.455 28.1754 115.465 27.6504C114.49 27.1254 113.718 26.3754 113.148 25.4004C112.593 24.4254 112.315 23.2854 112.315 21.9804C112.315 20.6904 112.6 19.5579 113.17 18.5829C113.74 17.5929 114.52 16.8354 115.51 16.3104C116.5 15.7854 117.61 15.5229 118.84 15.5229C120.07 15.5229 121.18 15.7854 122.17 16.3104C123.16 16.8354 123.94 17.5929 124.51 18.5829C125.08 19.5579 125.365 20.6904 125.365 21.9804C125.365 23.2704 125.073 24.4104 124.488 25.4004C123.918 26.3754 123.13 27.1254 122.125 27.6504C121.135 28.1754 120.025 28.4379 118.795 28.4379ZM118.795 25.1079C119.53 25.1079 120.153 24.8379 120.663 24.2979C121.188 23.7579 121.45 22.9854 121.45 21.9804C121.45 20.9754 121.195 20.2029 120.685 19.6629C120.19 19.1229 119.575 18.8529 118.84 18.8529C118.09 18.8529 117.468 19.1229 116.973 19.6629C116.478 20.1879 116.23 20.9604 116.23 21.9804C116.23 22.9854 116.47 23.7579 116.95 24.2979C117.445 24.8379 118.06 25.1079 118.795 25.1079Z" fill="black"/>
<path d="M134.606 28.2579L132.199 24.7704L130.174 28.2579H126.011L130.151 21.8454L125.899 15.7029H130.219L132.626 19.1679L134.651 15.7029H138.814L134.606 22.0254L138.926 28.2579H134.606Z" fill="black"/>
</svg>
