<svg width="158" height="40" viewBox="0 0 158 40" fill="none" xmlns="http://www.w3.org/2000/svg">
<path d="M17.9833 3.33398C14.95 3.33399 12.5 5.7542 12.5 8.75065C12.5 11.7241 14.95 14.1442 17.96 14.1673C17.2133 14.1442 16.63 13.545 16.63 12.8074C16.63 12.0698 17.2367 11.4475 18.0067 11.4475C21.2733 11.4475 28.53 11.4475 31.7267 11.4475C33.99 11.4475 35.8333 9.62655 35.8333 7.39075C35.8333 5.1549 33.99 3.33398 31.7267 3.33398L17.9833 3.33398Z" fill="black"/>
<path opacity="0.9" d="M11.3168 14.167C8.28349 14.167 5.8335 16.5872 5.8335 19.5837C5.8335 22.5571 8.28349 24.9773 11.2935 25.0003C10.5468 24.9773 9.9635 24.378 9.9635 23.6404C9.9635 22.9028 10.5702 22.2805 11.3402 22.2805C14.6068 22.2805 21.8635 22.2805 25.0602 22.2805C27.3235 22.2805 29.1668 20.4596 29.1668 18.2238C29.1668 15.9879 27.3235 14.167 25.0602 14.167L11.3168 14.167Z" fill="black"/>
<path opacity="0.8" d="M6.7085 25C3.45849 25 0.833496 27.6064 0.833496 30.8333C0.833496 34.0355 3.45849 36.6418 6.68348 36.6667C5.88349 36.6418 5.2585 35.9965 5.2585 35.2021C5.2585 34.4078 5.90851 33.7376 6.73352 33.7376C10.2335 33.7376 18.0085 33.7376 21.4335 33.7376C23.8585 33.7376 25.8335 31.7766 25.8335 29.3688C25.8335 26.961 23.8585 25 21.4335 25L6.7085 25Z" fill="black"/>
<path d="M44.1499 28.2572V10.7572H55.3999V13.7572H47.4499V17.9322H54.6999V20.9322H47.4499V25.2572H55.5499V28.2572H44.1499Z" fill="black"/>
<path d="M56.8427 33.2572V15.8572H59.9427V17.3572H60.3927C60.676 16.8739 61.1177 16.4489 61.7177 16.0822C62.3177 15.6989 63.176 15.5072 64.2927 15.5072C65.2927 15.5072 66.2177 15.7572 67.0677 16.2572C67.9177 16.7406 68.601 17.4572 69.1177 18.4072C69.6343 19.3572 69.8927 20.5072 69.8927 21.8572V22.2572C69.8927 23.6072 69.6343 24.7572 69.1177 25.7072C68.601 26.6572 67.9177 27.3822 67.0677 27.8822C66.2177 28.3656 65.2927 28.6072 64.2927 28.6072C63.5427 28.6072 62.9093 28.5156 62.3927 28.3322C61.8927 28.1656 61.4843 27.9489 61.1677 27.6822C60.8677 27.3989 60.626 27.1156 60.4427 26.8322H59.9927V33.2572H56.8427ZM63.3427 25.8572C64.326 25.8572 65.1343 25.5489 65.7677 24.9322C66.4177 24.2989 66.7427 23.3822 66.7427 22.1822V21.9322C66.7427 20.7322 66.4177 19.8239 65.7677 19.2072C65.1177 18.5739 64.3093 18.2572 63.3427 18.2572C62.376 18.2572 61.5677 18.5739 60.9177 19.2072C60.2677 19.8239 59.9427 20.7322 59.9427 21.9322V22.1822C59.9427 23.3822 60.2677 24.2989 60.9177 24.9322C61.5677 25.5489 62.376 25.8572 63.3427 25.8572Z" fill="black"/>
<path d="M71.5351 28.2572V15.8572H74.6851V28.2572H71.5351ZM73.1101 14.4072C72.5434 14.4072 72.0601 14.2239 71.6601 13.8572C71.2767 13.4906 71.0851 13.0072 71.0851 12.4072C71.0851 11.8072 71.2767 11.3239 71.6601 10.9572C72.0601 10.5906 72.5434 10.4072 73.1101 10.4072C73.6934 10.4072 74.1767 10.5906 74.5601 10.9572C74.9434 11.3239 75.1351 11.8072 75.1351 12.4072C75.1351 13.0072 74.9434 13.4906 74.5601 13.8572C74.1767 14.2239 73.6934 14.4072 73.1101 14.4072Z" fill="black"/>
<path d="M82.7507 28.6072C81.5507 28.6072 80.459 28.3572 79.4757 27.8572C78.509 27.3572 77.7424 26.6322 77.1757 25.6822C76.609 24.7322 76.3257 23.5822 76.3257 22.2322V21.8822C76.3257 20.5322 76.609 19.3822 77.1757 18.4322C77.7424 17.4822 78.509 16.7572 79.4757 16.2572C80.459 15.7572 81.5507 15.5072 82.7507 15.5072C83.934 15.5072 84.9507 15.7156 85.8007 16.1322C86.6507 16.5489 87.334 17.1239 87.8507 17.8572C88.384 18.5739 88.734 19.3906 88.9007 20.3072L85.8507 20.9572C85.784 20.4572 85.634 20.0072 85.4007 19.6072C85.1674 19.2072 84.834 18.8906 84.4007 18.6572C83.984 18.4239 83.459 18.3072 82.8257 18.3072C82.1923 18.3072 81.6174 18.4489 81.1007 18.7322C80.6007 18.9989 80.2007 19.4072 79.9007 19.9572C79.6174 20.4906 79.4757 21.1489 79.4757 21.9322V22.1822C79.4757 22.9656 79.6174 23.6322 79.9007 24.1822C80.2007 24.7156 80.6007 25.1239 81.1007 25.4072C81.6174 25.6739 82.1923 25.8072 82.8257 25.8072C83.7757 25.8072 84.4924 25.5656 84.9757 25.0822C85.4757 24.5822 85.7924 23.9322 85.9257 23.1322L88.9757 23.8572C88.759 24.7406 88.384 25.5489 87.8507 26.2822C87.334 26.9989 86.6507 27.5656 85.8007 27.9822C84.9507 28.3989 83.934 28.6072 82.7507 28.6072Z" fill="black"/>
<path d="M95.0491 28.4572C94.0825 28.4572 93.2325 28.2406 92.4991 27.8072C91.7825 27.3572 91.2241 26.7406 90.8241 25.9572C90.4241 25.1739 90.2241 24.2739 90.2241 23.2572V15.8572H93.3741V23.0072C93.3741 23.9406 93.5991 24.6406 94.0491 25.1072C94.5158 25.5739 95.1741 25.8072 96.0241 25.8072C96.9908 25.8072 97.7408 25.4906 98.2741 24.8572C98.8074 24.2072 99.0741 23.3072 99.0741 22.1572V15.8572H102.224V28.2572H99.1241V26.6322H98.6741C98.4741 27.0489 98.0991 27.4572 97.5491 27.8572C96.9991 28.2572 96.1658 28.4572 95.0491 28.4572Z" fill="black"/>
<path d="M104.479 28.2572V15.8572H107.579V17.2572H108.029C108.213 16.7572 108.513 16.3906 108.929 16.1572C109.363 15.9239 109.863 15.8072 110.429 15.8072H111.929V18.6072H110.379C109.579 18.6072 108.921 18.8239 108.404 19.2572C107.888 19.6739 107.629 20.3239 107.629 21.2072V28.2572H104.479Z" fill="black"/>
<path d="M113.141 28.2572V15.8572H116.291V28.2572H113.141ZM114.716 14.4072C114.15 14.4072 113.666 14.2239 113.266 13.8572C112.883 13.4906 112.691 13.0072 112.691 12.4072C112.691 11.8072 112.883 11.3239 113.266 10.9572C113.666 10.5906 114.15 10.4072 114.716 10.4072C115.3 10.4072 115.783 10.5906 116.167 10.9572C116.55 11.3239 116.741 11.8072 116.741 12.4072C116.741 13.0072 116.55 13.4906 116.167 13.8572C115.783 14.2239 115.3 14.4072 114.716 14.4072Z" fill="black"/>
<path d="M124.432 28.6072C123.199 28.6072 122.09 28.3572 121.107 27.8572C120.124 27.3572 119.349 26.6322 118.782 25.6822C118.215 24.7322 117.932 23.5906 117.932 22.2572V21.8572C117.932 20.5239 118.215 19.3822 118.782 18.4322C119.349 17.4822 120.124 16.7572 121.107 16.2572C122.09 15.7572 123.199 15.5072 124.432 15.5072C125.665 15.5072 126.774 15.7572 127.757 16.2572C128.74 16.7572 129.515 17.4822 130.082 18.4322C130.649 19.3822 130.932 20.5239 130.932 21.8572V22.2572C130.932 23.5906 130.649 24.7322 130.082 25.6822C129.515 26.6322 128.74 27.3572 127.757 27.8572C126.774 28.3572 125.665 28.6072 124.432 28.6072ZM124.432 25.8072C125.399 25.8072 126.199 25.4989 126.832 24.8822C127.465 24.2489 127.782 23.3489 127.782 22.1822V21.9322C127.782 20.7656 127.465 19.8739 126.832 19.2572C126.215 18.6239 125.415 18.3072 124.432 18.3072C123.465 18.3072 122.665 18.6239 122.032 19.2572C121.399 19.8739 121.082 20.7656 121.082 21.9322V22.1822C121.082 23.3489 121.399 24.2489 122.032 24.8822C122.665 25.4989 123.465 25.8072 124.432 25.8072Z" fill="black"/>
<path d="M137.315 28.4572C136.348 28.4572 135.498 28.2406 134.765 27.8072C134.048 27.3572 133.49 26.7406 133.09 25.9572C132.69 25.1739 132.49 24.2739 132.49 23.2572V15.8572H135.64V23.0072C135.64 23.9406 135.865 24.6406 136.315 25.1072C136.781 25.5739 137.44 25.8072 138.29 25.8072C139.256 25.8072 140.006 25.4906 140.54 24.8572C141.073 24.2072 141.34 23.3072 141.34 22.1572V15.8572H144.49V28.2572H141.39V26.6322H140.94C140.74 27.0489 140.365 27.4572 139.815 27.8572C139.265 28.2572 138.431 28.4572 137.315 28.4572Z" fill="black"/>
<path d="M151.895 28.6072C150.278 28.6072 148.953 28.2572 147.92 27.5572C146.887 26.8572 146.262 25.8572 146.045 24.5572L148.945 23.8072C149.062 24.3906 149.253 24.8489 149.52 25.1822C149.803 25.5156 150.145 25.7572 150.545 25.9072C150.962 26.0406 151.412 26.1072 151.895 26.1072C152.628 26.1072 153.17 25.9822 153.52 25.7322C153.87 25.4656 154.045 25.1406 154.045 24.7572C154.045 24.3739 153.878 24.0822 153.545 23.8822C153.212 23.6656 152.678 23.4906 151.945 23.3572L151.245 23.2322C150.378 23.0656 149.587 22.8406 148.87 22.5572C148.153 22.2572 147.578 21.8489 147.145 21.3322C146.712 20.8156 146.495 20.1489 146.495 19.3322C146.495 18.0989 146.945 17.1572 147.845 16.5072C148.745 15.8406 149.928 15.5072 151.395 15.5072C152.778 15.5072 153.928 15.8156 154.845 16.4322C155.762 17.0489 156.362 17.8572 156.645 18.8572L153.72 19.7572C153.587 19.1239 153.312 18.6739 152.895 18.4072C152.495 18.1406 151.995 18.0072 151.395 18.0072C150.795 18.0072 150.337 18.1156 150.02 18.3322C149.703 18.5322 149.545 18.8156 149.545 19.1822C149.545 19.5822 149.712 19.8822 150.045 20.0822C150.378 20.2656 150.828 20.4072 151.395 20.5072L152.095 20.6322C153.028 20.7989 153.87 21.0239 154.62 21.3072C155.387 21.5739 155.987 21.9656 156.42 22.4822C156.87 22.9822 157.095 23.6656 157.095 24.5322C157.095 25.8322 156.62 26.8406 155.67 27.5572C154.737 28.2572 153.478 28.6072 151.895 28.6072Z" fill="black"/>
</svg>
