<svg width="165" height="40" viewBox="0 0 165 40" fill="none" xmlns="http://www.w3.org/2000/svg">
<path d="M25.3574 1.66699H11.3093L0 12.9762V27.0244L11.3093 38.3337H25.3574L36.6667 27.0244V12.9762L25.3574 1.66699ZM13.253 27.2011L6.00805 19.9561L13.253 12.7112C15.992 9.97221 20.498 9.97221 23.237 12.7112L30.4819 19.9561L23.237 27.2011C20.498 29.9401 16.0803 29.9401 13.253 27.2011Z" fill="black"/>
<path d="M52.7831 28.5338C55.0331 28.5338 56.8831 27.3838 57.4581 25.6588V28.3338H60.7831V21.5838C60.7831 20.0588 59.5831 18.7588 57.9581 18.7588H53.2081V21.5838H56.5831C57.0081 21.5838 57.2831 21.8588 57.2831 22.2838C57.2831 23.9088 55.1331 25.4838 52.9581 25.4838C50.0581 25.4838 47.7581 23.2088 47.7581 19.5838C47.7581 15.9588 50.0581 13.8588 53.0331 13.8588C55.2831 13.8588 56.8331 15.0838 57.1081 16.9588H60.8331C60.6081 13.2088 57.4581 10.6338 53.0581 10.6338C48.4331 10.6338 44.1831 13.6088 44.1831 19.5838C44.1831 25.5588 48.3081 28.5338 52.7831 28.5338Z" fill="black"/>
<path d="M62.2104 28.3338H65.6854V10.2588H62.2104V28.3338Z" fill="black"/>
<path d="M73.1813 28.5338C77.0563 28.5338 79.8313 25.7838 79.8313 22.0338C79.8313 18.2838 77.0563 15.5338 73.1813 15.5338C69.3063 15.5338 66.5313 18.2838 66.5313 22.0338C66.5313 25.7838 69.3063 28.5338 73.1813 28.5338ZM73.1813 25.5338C71.3063 25.5338 70.0313 24.1088 70.0313 22.0338C70.0313 19.9338 71.3063 18.5088 73.1813 18.5088C75.0563 18.5088 76.3313 19.9338 76.3313 22.0338C76.3313 24.1088 75.0563 25.5338 73.1813 25.5338Z" fill="black"/>
<path d="M87.6071 28.5338C91.3321 28.5338 93.5571 25.9588 93.5571 22.0338C93.5571 18.1088 91.3321 15.5338 87.6571 15.5338C86.0821 15.5338 84.8571 16.1338 84.1571 17.0588V10.2588H80.6821V28.3338H84.1571V26.9588C84.8571 27.9338 86.1571 28.5338 87.6071 28.5338ZM87.0571 25.5338C85.1821 25.5338 83.9571 24.1338 83.9571 22.0338C83.9571 19.9088 85.1821 18.5088 87.0571 18.5088C88.8821 18.5088 90.1321 19.9088 90.1321 22.0338C90.1321 24.1338 88.8821 25.5338 87.0571 25.5338Z" fill="black"/>
<path d="M99.3741 15.5338C95.9241 15.5338 93.8741 17.5588 93.7241 20.0838H96.8241C96.8741 19.0338 97.6491 18.0838 99.1741 18.0838C100.599 18.0838 101.424 18.8088 101.424 19.8588C101.424 20.3838 101.099 20.7838 100.474 20.7838H98.3491C95.5991 20.7838 93.7491 22.2838 93.7491 24.7588C93.7491 26.9088 95.4241 28.5338 97.8741 28.5338C99.5991 28.5338 100.999 27.7588 101.424 26.5838V28.3338H104.874V20.2338C104.874 17.3838 102.549 15.5338 99.3741 15.5338ZM98.7491 26.0088C97.7741 26.0088 97.0741 25.4338 97.0741 24.6088C97.0741 23.6338 97.8241 22.9838 98.8741 22.9838H101.424V23.1588C101.424 24.7588 100.449 26.0088 98.7491 26.0088Z" fill="black"/>
<path d="M106.209 28.3338H109.684V10.2588H106.209V28.3338Z" fill="black"/>
<path d="M111.53 28.3338H118.68C122.38 28.3338 124.93 26.4338 124.93 23.1088C124.93 20.8088 123.58 19.4088 121.98 18.7838C123.005 18.2338 124.03 16.9838 124.03 15.3338C124.03 12.4088 121.655 10.8338 118.48 10.8338H111.53V28.3338ZM115.23 17.5088V13.8088H118.13C119.805 13.8088 120.555 14.4838 120.555 15.6588C120.555 16.8338 119.805 17.5088 118.205 17.5088H115.23ZM115.23 25.0838V20.6838H118.355C120.43 20.6838 121.355 21.4838 121.355 22.9088C121.355 24.3338 120.43 25.0838 118.355 25.0838H115.23Z" fill="black"/>
<path d="M130.976 15.5338C127.526 15.5338 125.476 17.5588 125.326 20.0838H128.426C128.476 19.0338 129.251 18.0838 130.776 18.0838C132.201 18.0838 133.026 18.8088 133.026 19.8588C133.026 20.3838 132.701 20.7838 132.076 20.7838H129.951C127.201 20.7838 125.351 22.2838 125.351 24.7588C125.351 26.9088 127.026 28.5338 129.476 28.5338C131.201 28.5338 132.601 27.7588 133.026 26.5838V28.3338H136.476V20.2338C136.476 17.3838 134.151 15.5338 130.976 15.5338ZM130.351 26.0088C129.376 26.0088 128.676 25.4338 128.676 24.6088C128.676 23.6338 129.426 22.9838 130.476 22.9838H133.026V23.1588C133.026 24.7588 132.051 26.0088 130.351 26.0088Z" fill="black"/>
<path d="M137.611 28.3338H141.111V21.4338C141.111 19.8088 142.186 18.6338 143.711 18.6338C145.161 18.6338 146.136 19.7338 146.136 21.2588V28.3338H149.636V20.4838C149.636 17.5838 147.786 15.5338 144.936 15.5338C143.211 15.5338 141.811 16.2588 141.111 17.4838V15.7338H137.611V28.3338Z" fill="black"/>
<path d="M159.611 28.3338H163.811L158.386 20.6838L163.411 15.7338H159.011L154.636 20.0338V10.2588H151.136V28.3338H154.636V24.3838L156.036 23.0088L159.611 28.3338Z" fill="black"/>
</svg>
