<svg width="166" height="40" viewBox="0 0 166 40" fill="none" xmlns="http://www.w3.org/2000/svg">
<path d="M9.86031 3.73797L14.1507 19.75V2.14604C14.4909 2.06665 14.8348 1.99674 15.182 1.93659V19.7516L20.0076 1.74219C20.3553 1.77367 20.7003 1.81486 21.0422 1.8655L16.1777 20.02L25.847 3.27222C26.162 3.41393 26.4723 3.56428 26.7776 3.72296L17.0721 20.5332L30.9278 6.67752C31.1776 6.91375 31.4208 7.15693 31.657 7.40676L17.7993 21.2645L34.6115 11.5579C34.7702 11.8632 34.9205 12.1735 35.0622 12.4885L18.3185 22.1555L36.4681 17.2923C36.5187 17.6342 36.5599 17.9792 36.5913 18.3269L18.5821 23.1525L36.3967 23.1525C36.3365 23.4997 36.2666 23.8435 36.1872 24.1837L18.5794 24.1837L34.5945 28.475C34.43 28.7899 34.2567 29.0995 34.0748 29.4033L18.317 25.1811L31.4784 32.7798C31.2292 33.036 30.9726 33.285 30.709 33.5263L17.8025 26.0748L27.5686 35.8409C27.2597 36.0214 26.945 36.1931 26.625 36.3556L17.0723 26.803L23.3313 37.6439C22.9886 37.7408 22.6418 37.8279 22.2913 37.9051L16.1783 27.317L19.1256 38.3166C18.8629 38.3278 18.5988 38.3334 18.3333 38.3334C18.2427 38.3334 18.1523 38.3328 18.062 38.3315L15.1819 27.5831V38.0636C14.8348 38.0035 14.4909 37.9335 14.1507 37.8542V27.5848L11.6113 37.0619C11.2874 36.9342 10.968 36.7975 10.6535 36.6522L13.1542 27.3193L8.45979 35.4503C8.16916 35.2641 7.88413 35.0701 7.605 34.8683L12.2625 26.8013L5.73999 33.3238C5.49017 33.0876 5.24698 32.8444 5.01075 32.5946L11.5312 26.0741L3.46649 30.7303C3.2647 30.4512 3.07057 30.1662 2.88441 29.8756L11.0192 25.1789L1.68167 27.6809C1.53633 27.3664 1.39964 27.047 1.27191 26.7231L10.749 24.1837L0.479507 24.1837C0.400099 23.8435 0.330164 23.4997 0.269995 23.1525L10.7462 23.1525L0.00199804 20.2736C0.000667553 20.1826 0 20.0914 0 20.0001C0 19.7353 0.00561207 19.4719 0.0167237 19.2099L11.0177 22.1576L0.428018 16.0436C0.505126 15.6931 0.592267 15.3463 0.689122 15.0036L11.5345 21.2652L1.97778 11.7085C2.14037 11.3884 2.31208 11.0737 2.49256 10.7648L12.2626 20.5349L4.80814 7.62333C5.04952 7.3597 5.29851 7.10314 5.55476 6.85402L13.1548 20.0177L8.93191 4.25758C9.23578 4.07572 9.54536 3.9024 9.86031 3.73797Z" fill="black"/>
<path d="M48.2065 28.2575H52.1965V21.3275H60.1532V17.8042H52.1965V14.8408H60.6665V11.3408H48.2065V28.2575Z" fill="black"/>
<path d="M67.448 18.3175C68.9646 18.3175 70.178 19.2508 70.178 21.9342C70.178 24.5708 69.0113 25.5742 67.448 25.5742C65.8846 25.5742 64.718 24.5708 64.718 21.9342C64.718 19.2508 65.9313 18.3175 67.448 18.3175ZM67.448 15.3308C63.9713 15.3308 60.798 17.3842 60.798 21.9342C60.798 26.4842 63.9713 28.5608 67.448 28.5608C70.9246 28.5608 74.098 26.4842 74.098 21.9342C74.098 17.3842 70.9246 15.3308 67.448 15.3308Z" fill="black"/>
<path d="M81.4908 15.3308C77.6875 15.3308 75.0741 17.9208 75.0741 21.9108C75.0741 25.9008 77.3608 28.5608 81.4908 28.5608C84.0108 28.5608 87.0208 27.3708 87.8841 23.6375H84.2908C84.0108 24.8275 83.1475 25.5742 81.7241 25.5742C80.3475 25.5742 78.9941 24.6642 78.9941 21.9342C78.9941 19.2508 80.3475 18.3175 81.7241 18.3175C82.8675 18.3175 83.7775 18.8308 84.1275 20.3008H87.7208C86.9741 16.5208 84.1041 15.3308 81.4908 15.3308Z" fill="black"/>
<path d="M96.9306 20.4175C92.0539 20.7908 88.5772 21.7942 88.5772 24.8742C88.5772 27.1608 90.5372 28.5608 92.9172 28.5608C94.7139 28.5608 96.2072 28.0708 97.1406 26.7408L97.1872 28.2575H100.967C100.781 27.4642 100.687 25.9942 100.687 24.6175V23.3108L100.734 20.5808C100.804 16.7775 98.7506 15.3075 95.1339 15.3075C91.4006 15.3075 89.1606 17.4075 88.9739 19.7642H92.5672C92.7306 18.5508 93.5706 17.9208 94.8072 17.9208C96.2072 17.9208 96.9306 18.4342 96.9306 19.9275V20.4175ZM97.0239 22.9842C97.0239 25.2942 95.8572 25.9475 94.3172 25.9475C93.3139 25.9475 92.5439 25.4108 92.5439 24.5942C92.5439 23.2408 94.3406 22.9375 97.0239 22.6808V22.9842Z" fill="black"/>
<path d="M106.56 11.3408H102.71V28.2575H106.56V11.3408Z" fill="black"/>
<path d="M109.014 11.3408V28.2575H113.004V22.4008H115.524C119.911 22.4008 123.201 21.3042 123.201 16.8475C123.201 12.4142 119.911 11.3408 115.524 11.3408H109.014ZM115.641 14.7008C117.508 14.7008 118.978 15.0742 118.978 16.8475C118.978 18.6208 117.508 19.0408 115.641 19.0408H113.004V14.7008H115.641Z" fill="black"/>
<path d="M129.965 18.3175C131.482 18.3175 132.695 19.2508 132.695 21.9342C132.695 24.5708 131.528 25.5742 129.965 25.5742C128.402 25.5742 127.235 24.5708 127.235 21.9342C127.235 19.2508 128.448 18.3175 129.965 18.3175ZM129.965 15.3308C126.488 15.3308 123.315 17.3842 123.315 21.9342C123.315 26.4842 126.488 28.5608 129.965 28.5608C133.442 28.5608 136.615 26.4842 136.615 21.9342C136.615 17.3842 133.442 15.3308 129.965 15.3308Z" fill="black"/>
<path d="M138.155 15.7042V28.2575H142.029V15.7042H138.155ZM138.155 11.3408V14.4208H142.005V11.3408H138.155Z" fill="black"/>
<path d="M148.17 15.7042H144.32V28.2575H148.17V21.8175C148.17 19.4842 148.846 18.4108 150.503 18.4108C152.37 18.4108 152.44 19.8808 152.44 21.6775V28.2575H156.29V20.7208C156.29 17.3142 155.286 15.4242 152.066 15.4242C150.083 15.4242 148.73 16.4275 148.17 17.3608V15.7042Z" fill="black"/>
<path d="M158.952 15.7042H156.968V18.4342H158.952V24.7342C158.952 27.6508 160.002 28.2575 163.105 28.2575H165.555V25.4808H164.458C163.175 25.4808 162.802 25.2475 162.802 24.0575V18.4342H165.555V15.7042H162.802V12.2742H158.952V15.7042Z" fill="black"/>
</svg>
