<svg width="122" height="40" viewBox="0 0 122 40" fill="none" xmlns="http://www.w3.org/2000/svg">
<path opacity="0.7" d="M11.0645 18.5984C11.7497 16.0415 14.3779 13.4133 16.9348 12.728L32.8756 8.45608C35.4325 7.77086 36.9498 9.28815 36.2646 11.845L31.9926 27.7859C31.3074 30.3427 28.6792 32.971 26.1223 33.6562L10.1815 37.9282C7.62457 38.6134 6.10728 37.0961 6.7925 34.5392L11.0645 18.5984Z" fill="black"/>
<path d="M4.67385 12.2078C5.35907 9.65089 7.98732 7.02264 10.5442 6.33742L26.485 2.06545C29.0419 1.38023 30.5592 2.89752 29.874 5.45441L25.602 21.3952C24.9168 23.9521 22.2886 26.5804 19.7317 27.2656L3.79084 31.5376C1.23395 32.2228 -0.283343 30.7055 0.401878 28.1486L4.67385 12.2078Z" fill="black"/>
<path d="M51.2703 25.1779H56.4969V28.2579H47.2803V11.8779H51.2703V25.1779Z" fill="black"/>
<path d="M57.1401 21.7246C57.1401 20.3868 57.389 19.2124 57.8867 18.2013C58.4001 17.1902 59.0923 16.4124 59.9634 15.8679C60.8345 15.3235 61.8067 15.0513 62.8801 15.0513C63.7978 15.0513 64.599 15.2379 65.2834 15.6113C65.9834 15.9846 66.5201 16.4746 66.8934 17.0813V15.2379H70.8834V28.2579H66.8934V26.4146C66.5045 27.0213 65.9601 27.5113 65.2601 27.8846C64.5756 28.2579 63.7745 28.4446 62.8567 28.4446C61.799 28.4446 60.8345 28.1724 59.9634 27.6279C59.0923 27.0679 58.4001 26.2824 57.8867 25.2713C57.389 24.2446 57.1401 23.0624 57.1401 21.7246ZM66.8934 21.7479C66.8934 20.7524 66.6134 19.9668 66.0534 19.3913C65.509 18.8157 64.8401 18.5279 64.0467 18.5279C63.2534 18.5279 62.5767 18.8157 62.0167 19.3913C61.4723 19.9513 61.2001 20.729 61.2001 21.7246C61.2001 22.7202 61.4723 23.5135 62.0167 24.1046C62.5767 24.6802 63.2534 24.9679 64.0467 24.9679C64.8401 24.9679 65.509 24.6802 66.0534 24.1046C66.6134 23.529 66.8934 22.7435 66.8934 21.7479Z" fill="black"/>
<path d="M86.6033 15.2379L78.4367 34.4413H74.1433L77.13 27.8146L71.8333 15.2379H76.29L79.3 23.3813L82.2867 15.2379H86.6033Z" fill="black"/>
<path d="M99.8528 21.5379C99.8528 21.9113 99.8295 22.3002 99.7828 22.7046H90.7528C90.815 23.5135 91.0717 24.1357 91.5228 24.5713C91.9895 24.9913 92.5573 25.2013 93.2262 25.2013C94.2217 25.2013 94.9139 24.7813 95.3028 23.9413H99.5495C99.3317 24.7968 98.935 25.5668 98.3595 26.2513C97.7995 26.9357 97.0917 27.4724 96.2362 27.8613C95.3806 28.2502 94.4239 28.4446 93.3662 28.4446C92.0906 28.4446 90.955 28.1724 89.9595 27.6279C88.9639 27.0835 88.1862 26.3057 87.6262 25.2946C87.0662 24.2835 86.7862 23.1013 86.7862 21.7479C86.7862 20.3946 87.0584 19.2124 87.6028 18.2013C88.1628 17.1902 88.9406 16.4124 89.9362 15.8679C90.9317 15.3235 92.075 15.0513 93.3662 15.0513C94.6262 15.0513 95.7462 15.3157 96.7262 15.8446C97.7062 16.3735 98.4684 17.1279 99.0128 18.1079C99.5728 19.0879 99.8528 20.2313 99.8528 21.5379ZM95.7695 20.4879C95.7695 19.8035 95.5362 19.259 95.0695 18.8546C94.6028 18.4502 94.0195 18.2479 93.3195 18.2479C92.6506 18.2479 92.0828 18.4424 91.6162 18.8313C91.165 19.2202 90.885 19.7724 90.7762 20.4879H95.7695Z" fill="black"/>
<path d="M105.481 17.4079C105.948 16.6924 106.531 16.1324 107.231 15.7279C107.931 15.3079 108.709 15.0979 109.564 15.0979V19.3213H108.468C107.472 19.3213 106.726 19.539 106.228 19.9746C105.73 20.3946 105.481 21.1413 105.481 22.2146V28.2579H101.491V15.2379H105.481V17.4079Z" fill="black"/>
<path d="M116.302 28.4446C115.166 28.4446 114.155 28.2502 113.268 27.8613C112.382 27.4724 111.682 26.9435 111.168 26.2746C110.655 25.5902 110.367 24.8279 110.305 23.9879H114.248C114.295 24.439 114.505 24.8046 114.878 25.0846C115.252 25.3646 115.71 25.5046 116.255 25.5046C116.753 25.5046 117.134 25.4113 117.398 25.2246C117.678 25.0224 117.818 24.7657 117.818 24.4546C117.818 24.0813 117.624 23.809 117.235 23.6379C116.846 23.4513 116.216 23.249 115.345 23.0313C114.412 22.8135 113.634 22.5879 113.012 22.3546C112.389 22.1057 111.853 21.7246 111.402 21.2113C110.95 20.6824 110.725 19.9746 110.725 19.0879C110.725 18.3413 110.927 17.6646 111.332 17.0579C111.752 16.4357 112.358 15.9457 113.152 15.5879C113.96 15.2302 114.917 15.0513 116.022 15.0513C117.655 15.0513 118.938 15.4557 119.872 16.2646C120.82 17.0735 121.365 18.1468 121.505 19.4846H117.818C117.756 19.0335 117.554 18.6757 117.212 18.4113C116.885 18.1468 116.449 18.0146 115.905 18.0146C115.438 18.0146 115.08 18.1079 114.832 18.2946C114.583 18.4657 114.458 18.7068 114.458 19.0179C114.458 19.3913 114.653 19.6713 115.042 19.8579C115.446 20.0446 116.068 20.2313 116.908 20.4179C117.873 20.6668 118.658 20.9157 119.265 21.1646C119.872 21.3979 120.4 21.7868 120.852 22.3313C121.318 22.8602 121.559 23.5757 121.575 24.4779C121.575 25.2402 121.357 25.9246 120.922 26.5313C120.502 27.1224 119.887 27.589 119.078 27.9313C118.285 28.2735 117.359 28.4446 116.302 28.4446Z" fill="black"/>
</svg>
