<svg width="148" height="40" viewBox="0 0 148 40" fill="none" xmlns="http://www.w3.org/2000/svg">
<path d="M11.3174 3.06253C13.5417 2.14125 15.9258 1.66699 18.3333 1.66699V10.8337C17.1295 10.8337 15.9375 11.0707 14.8254 11.5315C13.7132 11.9921 12.7027 12.6673 11.8515 13.5185C11.0003 14.3697 10.3251 15.3802 9.86448 16.4924C9.40374 17.6045 9.16667 18.7965 9.16667 20.0003H0C0 17.5928 0.474257 15.2087 1.39553 12.9844C2.31691 10.7601 3.66729 8.73915 5.36968 7.03667C7.07216 5.33429 9.09312 3.98391 11.3174 3.06253Z" fill="black"/>
<path opacity="0.8" d="M0 20C0 22.4075 0.474257 24.7916 1.39553 27.0159C2.31691 29.2402 3.66729 31.2612 5.36968 32.9637C7.07216 34.666 9.09312 36.0164 11.3174 36.9378C13.5417 37.8591 15.9258 38.3333 18.3333 38.3333C20.7409 38.3333 23.1249 37.8591 25.3492 36.9378C27.5735 36.0164 29.5945 34.666 31.297 32.9637C32.9994 31.2612 34.3498 29.2402 35.2711 27.0159C36.1924 24.7916 36.6667 22.4075 36.6667 20H27.5C27.5 21.2038 27.2629 22.3958 26.8022 23.508C26.3415 24.6201 25.6664 25.6306 24.8152 26.4818C23.964 27.333 22.9534 28.0082 21.8413 28.4688C20.7291 28.9296 19.5372 29.1667 18.3333 29.1667C17.1295 29.1667 15.9375 28.9296 14.8254 28.4688C13.7132 28.0082 12.7027 27.333 11.8515 26.4818C11.0003 25.6306 10.3251 24.6201 9.86448 23.508C9.40374 22.3958 9.16667 21.2038 9.16667 20H0Z" fill="black"/>
<path opacity="0.8" d="M18.3333 14.167C15.1117 14.167 12.5 16.7787 12.5 20.0003H24.1667C24.1667 16.7787 21.555 14.167 18.3333 14.167Z" fill="black"/>
<path d="M18.3333 25.834C15.1117 25.834 12.5 23.2223 12.5 20.0007H24.1667C24.1667 23.2223 21.555 25.834 18.3333 25.834Z" fill="black"/>
<path d="M55.6808 16.1681C55.6145 15.4997 55.3301 14.9805 54.8274 14.6104C54.3247 14.2402 53.6425 14.0552 52.7807 14.0552C52.1952 14.0552 51.7008 14.1381 51.2975 14.3038C50.8943 14.464 50.5849 14.6877 50.3695 14.9749C50.1596 15.2622 50.0546 15.5881 50.0546 15.9527C50.0436 16.2565 50.1071 16.5217 50.2452 16.7481C50.3888 16.9746 50.5849 17.1707 50.8335 17.3364C51.0821 17.4966 51.3694 17.6375 51.6953 17.759C52.0212 17.875 52.3692 17.9745 52.7393 18.0573L54.2639 18.4219C55.0041 18.5876 55.6836 18.8086 56.3023 19.0848C56.921 19.361 57.4568 19.7007 57.9098 20.104C58.3627 20.5072 58.7135 20.9823 58.9621 21.5291C59.2162 22.076 59.346 22.703 59.3515 23.4101C59.346 24.4486 59.0808 25.349 58.5561 26.1113C58.0368 26.8681 57.2855 27.4564 56.3023 27.8762C55.3245 28.2905 54.1452 28.4977 52.7642 28.4977C51.3942 28.4977 50.201 28.2878 49.1846 27.8679C48.1737 27.4481 47.3838 26.8267 46.8148 26.0036C46.2514 25.175 45.9558 24.1503 45.9282 22.9295H49.4001C49.4387 23.4985 49.6017 23.9735 49.8889 24.3547C50.1817 24.7303 50.5711 25.0148 51.0572 25.2081C51.5489 25.3959 52.104 25.4899 52.7227 25.4899C53.3304 25.4899 53.8579 25.4015 54.3054 25.2247C54.7583 25.0479 55.1091 24.8021 55.3577 24.4872C55.6063 24.1724 55.7305 23.8106 55.7305 23.4018C55.7305 23.0206 55.6173 22.7002 55.3908 22.4406C55.1699 22.181 54.8439 21.96 54.4131 21.7777C53.9877 21.5954 53.4657 21.4297 52.847 21.2806L50.9992 20.8166C49.5685 20.4685 48.4389 19.9244 47.6103 19.1842C46.7817 18.444 46.3701 17.4469 46.3757 16.193C46.3701 15.1655 46.6436 14.2679 47.196 13.5C47.7539 12.7322 48.519 12.1328 49.4912 11.702C50.4634 11.2711 51.5682 11.0557 52.8056 11.0557C54.0651 11.0557 55.1643 11.2711 56.1034 11.702C57.048 12.1328 57.7827 12.7322 58.3075 13.5C58.8323 14.2679 59.1029 15.1572 59.1195 16.1681H55.6808Z" fill="black"/>
<path d="M67.4987 28.5059C66.1895 28.5059 65.0626 28.2408 64.118 27.7105C63.179 27.1747 62.4553 26.4179 61.9471 25.4401C61.4389 24.4569 61.1848 23.2941 61.1848 21.9517C61.1848 20.6425 61.4389 19.4936 61.9471 18.5048C62.4553 17.516 63.1707 16.7454 64.0932 16.193C65.0212 15.6406 66.1094 15.3644 67.3579 15.3644C68.1975 15.3644 68.9791 15.4997 69.7028 15.7704C70.432 16.0355 71.0672 16.436 71.6086 16.9719C72.1554 17.5077 72.5808 18.1816 72.8846 18.9936C73.1884 19.8001 73.3403 20.7447 73.3403 21.8274V22.7969H62.5934V20.6094H70.0177C70.0177 20.1012 69.9072 19.651 69.6862 19.2588C69.4653 18.8666 69.1587 18.56 68.7665 18.339C68.3798 18.1126 67.9296 17.9993 67.4159 17.9993C66.88 17.9993 66.405 18.1236 65.9907 18.3722C65.5819 18.6152 65.2615 18.9439 65.0295 19.3582C64.7975 19.767 64.6787 20.2227 64.6732 20.7254V22.8052C64.6732 23.4349 64.7892 23.979 65.0212 24.4375C65.2587 24.896 65.5929 25.2496 66.0238 25.4981C66.4547 25.7467 66.9656 25.871 67.5567 25.871C67.9489 25.871 68.308 25.8158 68.6339 25.7053C68.9598 25.5948 69.2388 25.4291 69.4708 25.2081C69.7028 24.9872 69.8796 24.7165 70.0011 24.3961L73.2658 24.6115C73.1 25.3959 72.7603 26.0809 72.2466 26.6665C71.7384 27.2465 71.081 27.6994 70.2745 28.0254C69.4735 28.3458 68.5483 28.5059 67.4987 28.5059Z" fill="black"/>
<path d="M81.3777 33.2952C80.2343 33.2952 79.2538 33.1378 78.4362 32.8229C77.6242 32.5136 76.9779 32.091 76.4973 31.5552C76.0167 31.0194 75.7046 30.4172 75.561 29.7488L78.8257 29.3097C78.9251 29.5638 79.0825 29.8013 79.298 30.0223C79.5134 30.2432 79.7979 30.42 80.1514 30.5526C80.5105 30.6907 80.9469 30.7597 81.4606 30.7597C82.2284 30.7597 82.8609 30.5719 83.3581 30.1963C83.8608 29.8262 84.1121 29.2047 84.1121 28.3319V26.0036H83.963C83.8083 26.3571 83.5763 26.6913 83.2669 27.0062C82.9576 27.3211 82.5599 27.5779 82.0738 27.7768C81.5876 27.9756 81.0076 28.0751 80.3337 28.0751C79.3781 28.0751 78.508 27.8541 77.7236 27.4122C76.9447 26.9648 76.3233 26.2825 75.8593 25.3656C75.4008 24.4431 75.1715 23.2775 75.1715 21.8689C75.1715 20.4271 75.4063 19.2229 75.8758 18.2562C76.3454 17.2895 76.9696 16.5658 77.7485 16.0853C78.5329 15.6047 79.3919 15.3644 80.3254 15.3644C81.038 15.3644 81.6346 15.4859 82.1152 15.729C82.5958 15.9665 82.9825 16.2648 83.2752 16.6238C83.5735 16.9774 83.8028 17.3254 83.963 17.6679H84.0955V15.5301H87.6005V28.3817C87.6005 29.4644 87.3354 30.3703 86.8051 31.0995C86.2748 31.8286 85.5401 32.3755 84.601 32.7401C83.6674 33.1102 82.593 33.2952 81.3777 33.2952ZM81.4523 25.4236C82.0213 25.4236 82.5019 25.2827 82.8941 25.001C83.2918 24.7137 83.5956 24.305 83.8055 23.7747C84.021 23.2388 84.1287 22.598 84.1287 21.8523C84.1287 21.1066 84.0237 20.4603 83.8138 19.9134C83.6039 19.361 83.3001 18.9329 82.9024 18.6291C82.5046 18.3252 82.0213 18.1733 81.4523 18.1733C80.8723 18.1733 80.3834 18.3308 79.9857 18.6456C79.588 18.955 79.2869 19.3858 79.0825 19.9382C78.8781 20.4906 78.7759 21.1287 78.7759 21.8523C78.7759 22.587 78.8781 23.2223 79.0825 23.7581C79.2924 24.2884 79.5935 24.6999 79.9857 24.9927C80.3834 25.2799 80.8723 25.4236 81.4523 25.4236Z" fill="black"/>
<path d="M90.4095 28.2574V15.5301H93.7736V17.7756H93.9227C94.1879 17.0299 94.6298 16.4416 95.2485 16.0107C95.8672 15.5798 96.6074 15.3644 97.4691 15.3644C98.3419 15.3644 99.0849 15.5826 99.698 16.019C100.311 16.4498 100.72 17.0354 100.924 17.7756H101.057C101.317 17.0464 101.786 16.4637 102.466 16.0273C103.151 15.5853 103.96 15.3644 104.893 15.3644C106.081 15.3644 107.045 15.7428 107.785 16.4996C108.531 17.2508 108.904 18.3169 108.904 19.6979V28.2574H105.382V20.394C105.382 19.6869 105.194 19.1566 104.819 18.8031C104.443 18.4495 103.974 18.2728 103.41 18.2728C102.769 18.2728 102.269 18.4771 101.91 18.8859C101.551 19.2892 101.372 19.8222 101.372 20.4851V28.2574H97.9497V20.3194C97.9497 19.6952 97.7702 19.198 97.4111 18.8279C97.0576 18.4578 96.5908 18.2728 96.0108 18.2728C95.6186 18.2728 95.265 18.3722 94.9502 18.5711C94.6408 18.7644 94.395 19.0378 94.2127 19.3914C94.0304 19.7394 93.9393 20.1482 93.9393 20.6177V28.2574H90.4095Z" fill="black"/>
<path d="M117.492 28.5059C116.183 28.5059 115.056 28.2408 114.112 27.7105C113.172 27.1747 112.449 26.4179 111.941 25.4401C111.432 24.4569 111.178 23.2941 111.178 21.9517C111.178 20.6425 111.432 19.4936 111.941 18.5048C112.449 17.516 113.164 16.7454 114.087 16.193C115.015 15.6406 116.103 15.3644 117.351 15.3644C118.191 15.3644 118.973 15.4997 119.696 15.7704C120.425 16.0355 121.061 16.436 121.602 16.9719C122.149 17.5077 122.574 18.1816 122.878 18.9936C123.182 19.8001 123.334 20.7447 123.334 21.8274V22.7969H112.587V20.6094H120.011C120.011 20.1012 119.901 19.651 119.68 19.2588C119.459 18.8666 119.152 18.56 118.76 18.339C118.373 18.1126 117.923 17.9993 117.409 17.9993C116.874 17.9993 116.398 18.1236 115.984 18.3722C115.575 18.6152 115.255 18.9439 115.023 19.3582C114.791 19.767 114.672 20.2227 114.667 20.7254V22.8052C114.667 23.4349 114.783 23.979 115.015 24.4375C115.252 24.896 115.586 25.2496 116.017 25.4981C116.448 25.7467 116.959 25.871 117.55 25.871C117.942 25.871 118.301 25.8158 118.627 25.7053C118.953 25.5948 119.232 25.4291 119.464 25.2081C119.696 24.9872 119.873 24.7165 119.995 24.3961L123.259 24.6115C123.094 25.3959 122.754 26.0809 122.24 26.6665C121.732 27.2465 121.075 27.6994 120.268 28.0254C119.467 28.3458 118.542 28.5059 117.492 28.5059Z" fill="black"/>
<path d="M129.167 20.8994V28.2574H125.637V15.5301H129.001V17.7756H129.151C129.432 17.0354 129.905 16.4498 130.567 16.019C131.23 15.5826 132.034 15.3644 132.979 15.3644C133.863 15.3644 134.633 15.5577 135.29 15.9444C135.948 16.3311 136.459 16.8835 136.823 17.6016C137.188 18.3142 137.37 19.1649 137.37 20.1537V28.2574H133.84V20.7834C133.846 20.0045 133.647 19.3969 133.244 18.9605C132.841 18.5186 132.285 18.2976 131.578 18.2976C131.103 18.2976 130.683 18.3998 130.319 18.6042C129.96 18.8086 129.678 19.1069 129.474 19.4991C129.275 19.8858 129.173 20.3525 129.167 20.8994Z" fill="black"/>
<path d="M146.922 15.5301V18.1816H139.257V15.5301H146.922ZM140.997 12.4809H144.527V24.3464C144.527 24.6723 144.577 24.9264 144.676 25.1087C144.776 25.2855 144.914 25.4098 145.091 25.4816C145.273 25.5534 145.483 25.5893 145.72 25.5893C145.886 25.5893 146.052 25.5755 146.218 25.5479C146.383 25.5147 146.51 25.4898 146.599 25.4733L147.154 28.0999C146.977 28.1552 146.729 28.2187 146.408 28.2905C146.088 28.3678 145.698 28.4148 145.24 28.4314C144.389 28.4645 143.643 28.3513 143.003 28.0916C142.367 27.832 141.873 27.4288 141.519 26.8819C141.166 26.335 140.992 25.6445 140.997 24.8104V12.4809Z" fill="black"/>
</svg>
